<?xml version="1.0" standalone="no"?>
<svg width="1764" height="1587" xmlns="http://www.w3.org/2000/svg"><path data-facetId="0" d="M 0 0 Q 0 0 0 0 Q 1.5 0 3 0 Q 4.5 0 6 0 Q 7.5 0 9 0 Q 10.5 0 12 0 Q 13.5 0 15 0 Q 16.5 0 18 0 Q 19.5 0 21 0 Q 22.5 0 24 0 Q 25.5 0 27 0 Q 28.5 0 30 0 Q 31.5 0 33 0 Q 34.5 0 36 0 Q 37.5 0 39 0 Q 40.5 0 42 0 Q 43.5 0 45 0 Q 46.5 0 48 0 Q 49.5 0 51 0 Q 52.5 0 54 0 Q 55.5 0 57 0 Q 58.5 0 60 0 Q 61.5 0 63 0 Q 64.5 0 66 0 Q 67.5 0 69 0 Q 70.5 0 72 0 Q 73.5 0 75 0 Q 76.5 0 78 0 Q 79.5 0 81 0 Q 82.5 0 84 0 Q 85.5 0 87 0 Q 88.5 0 90 0 Q 91.5 0 93 0 Q 94.5 0 96 0 Q 97.5 0 99 0 Q 100.5 0 102 0 Q 103.5 0 105 0 Q 106.5 0 108 0 Q 109.5 0 111 0 Q 112.5 0 114 0 Q 115.5 0 117 0 Q 118.5 0 120 0 Q 121.5 0 123 0 Q 124.5 0 126 0 Q 127.5 0 129 0 Q 130.5 0 132 0 Q 133.5 0 135 0 Q 136.5 0 138 0 Q 139.5 0 141 0 Q 142.5 0 144 0 Q 145.5 0 147 0 Q 148.5 0 150 0 Q 151.5 0 153 0 Q 154.5 0 156 0 Q 157.5 0 159 0 Q 160.5 0 162 0 Q 163.5 0 165 0 Q 166.5 0 168 0 Q 169.5 0 171 0 Q 172.5 0 174 0 Q 175.5 0 177 0 Q 178.5 0 180 0 Q 181.5 0 183 0 Q 184.5 0 186 0 Q 187.5 0 189 0 Q 190.5 0 192 0 Q 193.5 0 195 0 Q 196.5 0 198 0 Q 199.5 0 201 0 Q 202.5 0 204 0 Q 205.5 0 207 0 Q 208.5 0 210 0 Q 211.5 0 213 0 Q 214.5 0 216 0 Q 217.5 0 219 0 Q 220.5 0 222 0 Q 223.5 0 225 0 Q 226.5 0 228 0 Q 229.5 0 231 0 Q 232.5 0 234 0 Q 235.5 0 237 0 Q 238.5 0 240 0 Q 241.5 0 243 0 Q 244.5 0 246 0 Q 247.5 0 249 0 Q 250.5 0 252 0 Q 253.5 0 255 0 Q 256.5 0 258 0 Q 259.5 0 261 0 Q 262.5 0 264 0 Q 265.5 0 267 0 Q 268.5 0 270 0 Q 271.5 0 273 0 Q 274.5 0 276 0 Q 277.5 0 279 0 Q 280.5 0 282 0 Q 283.5 0 285 0 Q 286.5 0 288 0 Q 289.5 0 291 0 Q 292.5 0 294 0 Q 295.5 0 297 0 Q 298.5 0 300 0 Q 301.5 0 303 0 Q 304.5 0 306 0 Q 307.5 0 309 0 Q 310.5 0 312 0 Q 313.5 0 315 0 Q 316.5 0 318 0 Q 319.5 0 321 0 Q 322.5 0 324 0 Q 325.5 0 327 0 Q 328.5 0 330 0 Q 331.5 0 333 0 Q 334.5 0 336 0 Q 337.5 0 339 0 Q 340.5 0 342 0 Q 343.5 0 345 0 Q 346.5 0 348 0 Q 349.5 0 351 0 Q 352.5 0 354 0 Q 355.5 0 357 0 Q 358.5 0 360 0 Q 361.5 0 363 0 Q 364.5 0 366 0 Q 367.5 0 369 0 Q 370.5 0 372 0 Q 373.5 0 375 0 Q 376.5 0 378 0 Q 379.5 0 381 0 Q 382.5 0 384 0 Q 385.5 0 387 0 Q 388.5 0 390 0 Q 391.5 0 393 0 Q 394.5 0 396 0 Q 397.5 0 399 0 Q 400.5 0 402 0 Q 403.5 0 405 0 Q 406.5 0 408 0 Q 409.5 0 411 0 Q 412.5 0 414 0 Q 415.5 0 417 0 Q 418.5 0 420 0 Q 421.5 0 423 0 Q 424.5 0 426 0 Q 427.5 0 429 0 Q 430.5 0 432 0 Q 433.5 0 435 0 Q 436.5 0 438 0 Q 439.5 0 441 0 Q 442.5 0 444 0 Q 445.5 0 447 0 Q 448.5 0 450 0 Q 451.5 0 453 0 Q 454.5 0 456 0 Q 457.5 0 459 0 Q 460.5 0 462 0 Q 463.5 0 465 0 Q 466.5 0 468 0 Q 469.5 0 471 0 Q 472.5 0 474 0 Q 475.5 0 477 0 Q 478.5 0 480 0 Q 481.5 0 483 0 Q 484.5 0 486 0 Q 487.5 0 489 0 Q 490.5 0 492 0 Q 493.5 0 495 0 Q 496.5 0 498 0 Q 499.5 0 501 0 Q 502.5 0 504 0 Q 505.5 0 507 0 Q 508.5 0 510 0 Q 511.5 0 513 0 Q 514.5 0 516 0 Q 517.5 0 519 0 Q 520.5 0 522 0 Q 523.5 0 525 0 Q 526.5 0 528 0 Q 529.5 0 531 0 Q 532.5 0 534 0 Q 535.5 0 537 0 Q 538.5 0 540 0 Q 541.5 0 543 0 Q 544.5 0 546 0 Q 547.5 0 549 0 Q 550.5 0 552 0 Q 553.5 0 555 0 Q 556.5 0 558 0 Q 559.5 0 561 0 Q 562.5 0 564 0 Q 565.5 0 567 0 Q 568.5 0 570 0 Q 571.5 0 573 0 Q 574.5 0 576 0 Q 577.5 0 579 0 Q 580.5 0 582 0 Q 583.5 0 585 0 Q 586.5 0 588 0 Q 589.5 0 591 0 Q 592.5 0 594 0 Q 595.5 0 597 0 Q 598.5 0 600 0 Q 601.5 0 603 0 Q 604.5 0 606 0 Q 607.5 0 609 0 Q 610.5 0 612 0 Q 613.5 0 615 0 Q 616.5 0 618 0 Q 619.5 0 621 0 Q 622.5 0 624 0 Q 625.5 0 627 0 Q 628.5 0 630 0 Q 631.5 0 633 0 Q 634.5 0 636 0 Q 637.5 0 639 0 Q 640.5 0 642 0 Q 643.5 0 645 0 Q 646.5 0 648 0 Q 649.5 0 651 0 Q 652.5 0 654 0 Q 655.5 0 657 0 Q 658.5 0 660 0 Q 661.5 0 663 0 Q 664.5 0 666 0 Q 667.5 0 669 0 Q 670.5 0 672 0 Q 673.5 0 675 0 Q 676.5 0 678 0 Q 679.5 0 681 0 Q 682.5 0 684 0 Q 685.5 0 687 0 Q 688.5 0 690 0 Q 691.5 0 693 0 Q 694.5 0 696 0 Q 697.5 0 699 0 Q 700.5 0 702 0 Q 703.5 0 705 0 Q 706.5 0 708 0 Q 709.5 0 711 0 Q 712.5 0 714 0 Q 715.5 0 717 0 Q 718.5 0 720 0 Q 721.5 0 723 0 Q 724.5 0 726 0 Q 727.5 0 729 0 Q 730.5 0 732 0 Q 733.5 0 735 0 Q 736.5 0 738 0 Q 739.5 0 741 0 Q 742.5 0 744 0 Q 745.5 0 747 0 Q 748.5 0 750 0 Q 751.5 0 753 0 Q 754.5 0 756 0 Q 757.5 0 759 0 Q 760.5 0 762 0 Q 763.5 0 765 0 Q 766.5 0 768 0 Q 769.5 0 771 0 Q 772.5 0 774 0 Q 775.5 0 777 0 Q 778.5 0 780 0 Q 781.5 0 783 0 Q 784.5 0 786 0 Q 787.5 0 789 0 Q 790.5 0 792 0 Q 793.5 0 795 0 Q 796.5 0 798 0 Q 799.5 0 801 0 Q 802.5 0 804 0 Q 805.5 0 807 0 Q 808.5 0 810 0 Q 811.5 0 813 0 Q 814.5 0 816 0 Q 817.5 0 819 0 Q 820.5 0 822 0 Q 823.5 0 825 0 Q 826.5 0 828 0 Q 829.5 0 831 0 Q 832.5 0 834 0 Q 835.5 0 837 0 Q 838.5 0 840 0 Q 841.5 0 843 0 Q 844.5 0 846 0 Q 847.5 0 849 0 Q 850.5 0 852 0 Q 853.5 0 855 0 Q 856.5 0 858 0 Q 859.5 0 861 0 Q 862.5 0 864 0 Q 865.5 0 867 0 Q 868.5 0 870 0 Q 871.5 0 873 0 Q 874.5 0 876 0 Q 877.5 0 879 0 Q 880.5 0 882 0 Q 883.5 0 885 0 Q 886.5 0 888 0 Q 889.5 0 891 0 Q 892.5 0 894 0 Q 895.5 0 897 0 Q 898.5 0 900 0 Q 901.5 0 903 0 Q 904.5 0 906 0 Q 907.5 0 909 0 Q 910.5 0 912 0 Q 913.5 0 915 0 Q 916.5 0 918 0 Q 919.5 0 921 0 Q 922.5 0 924 0 Q 925.5 0 927 0 Q 928.5 0 930 0 Q 931.5 0 933 0 Q 934.5 0 936 0 Q 937.5 0 939 0 Q 940.5 0 942 0 Q 943.5 0 945 0 Q 946.5 0 948 0 Q 949.5 0 951 0 Q 952.5 0 954 0 Q 955.5 0 957 0 Q 958.5 0 960 0 Q 961.5 0 963 0 Q 964.5 0 966 0 Q 967.5 0 969 0 Q 970.5 0 972 0 Q 973.5 0 975 0 Q 976.5 0 978 0 Q 979.5 0 981 0 Q 982.5 0 984 0 Q 985.5 0 987 0 Q 988.5 0 990 0 Q 991.5 0 993 0 Q 994.5 0 996 0 Q 997.5 0 999 0 Q 1000.5 0 1002 0 Q 1003.5 0 1005 0 Q 1006.5 0 1008 0 Q 1009.5 0 1011 0 Q 1012.5 0 1014 0 Q 1015.5 0 1017 0 Q 1018.5 0 1020 0 Q 1021.5 0 1023 0 Q 1024.5 0 1026 0 Q 1027.5 0 1029 0 Q 1030.5 0 1032 0 Q 1033.5 0 1035 0 Q 1036.5 0 1038 0 Q 1039.5 0 1041 0 Q 1042.5 0 1044 0 Q 1045.5 0 1047 0 Q 1048.5 0 1050 0 Q 1051.5 0 1053 0 Q 1054.5 0 1056 0 Q 1057.5 0 1059 0 Q 1060.5 0 1062 0 Q 1063.5 0 1065 0 Q 1066.5 0 1068 0 Q 1069.5 0 1071 0 Q 1072.5 0 1074 0 Q 1075.5 0 1077 0 Q 1078.5 0 1080 0 Q 1081.5 0 1083 0 Q 1084.5 0 1086 0 Q 1087.5 0 1089 0 Q 1090.5 0 1092 0 Q 1093.5 0 1095 0 Q 1096.5 0 1098 0 Q 1099.5 0 1101 0 Q 1102.5 0 1104 0 Q 1105.5 0 1107 0 Q 1108.5 0 1110 0 Q 1111.5 0 1113 0 Q 1114.5 0 1116 0 Q 1117.5 0 1119 0 Q 1120.5 0 1122 0 Q 1123.5 0 1125 0 Q 1126.5 0 1128 0 Q 1129.5 0 1131 0 Q 1132.5 0 1134 0 Q 1135.5 0 1137 0 Q 1138.5 0 1140 0 Q 1141.5 0 1143 0 Q 1144.5 0 1146 0 Q 1147.5 0 1149 0 Q 1150.5 0 1152 0 Q 1153.5 0 1155 0 Q 1156.5 0 1158 0 Q 1159.5 0 1161 0 Q 1162.5 0 1164 0 Q 1165.5 0 1167 0 Q 1168.5 0 1170 0 Q 1171.5 0 1173 0 Q 1174.5 0 1176 0 Q 1177.5 0 1179 0 Q 1180.5 0 1182 0 Q 1183.5 0 1185 0 Q 1186.5 0 1188 0 Q 1189.5 0 1191 0 Q 1192.5 0 1194 0 Q 1195.5 0 1197 0 Q 1198.5 0 1200 0 Q 1201.5 0 1203 0 Q 1204.5 0 1206 0 Q 1207.5 0 1209 0 Q 1210.5 0 1212 0 Q 1213.5 0 1215 0 Q 1216.5 0 1218 0 Q 1219.5 0 1221 0 Q 1222.5 0 1224 0 Q 1225.5 0 1227 0 Q 1228.5 0 1230 0 Q 1231.5 0 1233 0 Q 1234.5 0 1236 0 Q 1237.5 0 1239 0 Q 1240.5 0 1242 0 Q 1243.5 0 1245 0 Q 1246.5 0 1248 0 Q 1249.5 0 1251 0 Q 1252.5 0 1254 0 Q 1255.5 0 1257 0 Q 1258.5 0 1260 0 Q 1261.5 0 1263 0 Q 1264.5 0 1266 0 Q 1267.5 0 1269 0 Q 1270.5 0 1272 0 Q 1273.5 0 1275 0 Q 1276.5 0 1278 0 Q 1279.5 0 1281 0 Q 1282.5 0 1284 0 Q 1285.5 0 1287 0 Q 1288.5 0 1290 0 Q 1291.5 0 1293 0 Q 1294.5 0 1296 0 Q 1297.5 0 1299 0 Q 1300.5 0 1302 0 Q 1303.5 0 1305 0 Q 1306.5 0 1308 0 Q 1309.5 0 1311 0 Q 1312.5 0 1314 0 Q 1315.5 0 1317 0 Q 1318.5 0 1320 0 Q 1321.5 0 1323 0 Q 1324.5 0 1326 0 Q 1327.5 0 1329 0 Q 1330.5 0 1332 0 Q 1333.5 0 1335 0 Q 1336.5 0 1338 0 Q 1339.5 0 1341 0 Q 1342.5 0 1344 0 Q 1345.5 0 1347 0 Q 1348.5 0 1350 0 Q 1351.5 0 1353 0 Q 1354.5 0 1356 0 Q 1357.5 0 1359 0 Q 1360.5 0 1362 0 Q 1363.5 0 1365 0 Q 1366.5 0 1368 0 Q 1369.5 0 1371 0 Q 1372.5 0 1374 0 Q 1375.5 0 1377 0 Q 1378.5 0 1380 0 Q 1381.5 0 1383 0 Q 1384.5 0 1386 0 Q 1387.5 0 1389 0 Q 1390.5 0 1392 0 Q 1393.5 0 1395 0 Q 1396.5 0 1398 0 Q 1399.5 0 1401 0 Q 1402.5 0 1404 0 Q 1405.5 0 1407 0 Q 1408.5 0 1410 0 Q 1411.5 0 1413 0 Q 1414.5 0 1416 0 Q 1417.5 0 1419 0 Q 1420.5 0 1422 0 Q 1423.5 0 1425 0 Q 1426.5 0 1428 0 Q 1429.5 0 1431 0 Q 1432.5 0 1434 0 Q 1435.5 0 1437 0 Q 1438.5 0 1440 0 Q 1441.5 0 1443 0 Q 1444.5 0 1446 0 Q 1447.5 0 1449 0 Q 1450.5 0 1452 0 Q 1453.5 0 1455 0 Q 1456.5 0 1458 0 Q 1459.5 0 1461 0 Q 1462.5 0 1464 0 Q 1465.5 0 1467 0 Q 1468.5 0 1470 0 Q 1471.5 0 1473 0 Q 1474.5 0 1476 0 Q 1477.5 0 1479 0 Q 1480.5 0 1482 0 Q 1483.5 0 1485 0 Q 1486.5 0 1488 0 Q 1489.5 0 1491 0 Q 1492.5 0 1494 0 Q 1495.5 0 1497 0 Q 1498.5 0 1500 0 Q 1501.5 0 1503 0 Q 1504.5 0 1506 0 Q 1507.5 0 1509 0 Q 1510.5 0 1512 0 Q 1513.5 0 1515 0 Q 1516.5 0 1518 0 Q 1519.5 0 1521 0 Q 1522.5 0 1524 0 Q 1525.5 0 1527 0 Q 1528.5 0 1530 0 Q 1531.5 0 1533 0 Q 1534.5 0 1536 0 Q 1537.5 0 1539 0 Q 1540.5 0 1542 0 Q 1543.5 0 1545 0 Q 1546.5 0 1548 0 Q 1549.5 0 1551 0 Q 1552.5 0 1554 0 Q 1555.5 0 1557 0 Q 1558.5 0 1560 0 Q 1561.5 0 1563 0 Q 1564.5 0 1566 0 Q 1567.5 0 1569 0 Q 1570.5 0 1572 0 Q 1573.5 0 1575 0 Q 1576.5 0 1578 0 Q 1579.5 0 1581 0 Q 1582.5 0 1584 0 Q 1585.5 0 1587 0 Q 1588.5 0 1590 0 Q 1591.5 0 1593 0 Q 1594.5 0 1596 0 Q 1597.5 0 1599 0 Q 1600.5 0 1602 0 Q 1603.5 0 1605 0 Q 1606.5 0 1608 0 Q 1609.5 0 1611 0 Q 1612.5 0 1614 0 Q 1615.5 0 1617 0 Q 1618.5 0 1620 0 Q 1621.5 0 1623 0 Q 1624.5 0 1626 0 Q 1627.5 0 1629 0 Q 1630.5 0 1632 0 Q 1633.5 0 1635 0 Q 1636.5 0 1638 0 Q 1639.5 0 1641 0 Q 1642.5 0 1644 0 Q 1645.5 0 1647 0 Q 1648.5 0 1650 0 Q 1651.5 0 1653 0 Q 1654.5 0 1656 0 Q 1657.5 0 1659 0 Q 1660.5 0 1662 0 Q 1663.5 0 1665 0 Q 1666.5 0 1668 0 Q 1669.5 0 1671 0 Q 1672.5 0 1674 0 Q 1675.5 0 1677 0 Q 1678.5 0 1680 0 Q 1681.5 0 1683 0 Q 1684.5 0 1686 0 Q 1687.5 0 1689 0 Q 1690.5 0 1692 0 Q 1693.5 0 1695 0 Q 1696.5 0 1698 0 Q 1699.5 0 1701 0 Q 1702.5 0 1704 0 Q 1705.5 0 1707 0 Q 1708.5 0 1710 0 Q 1711.5 0 1713 0 Q 1714.5 0 1716 0 Q 1717.5 0 1719 0 Q 1720.5 0 1722 0 Q 1723.5 0 1725 0 Q 1726.5 0 1728 0 Q 1729.5 0 1731 0 Q 1732.5 0 1734 0 Q 1735.5 0 1737 0 Q 1738.5 0 1740 0 Q 1741.5 0 1743 0 Q 1744.5 0 1746 0 Q 1747.5 0 1749 0 Q 1750.5 0 1752 0 Q 1753.5 0 1755 0 Q 1756.5 0 1758 0 Q 1759.5 0 1761 0 Q 1761 0 1761 0 Q 1761 1.5 1761 3 Q 1761 4.5 1761 6 Q 1761 7.5 1761 9 Q 1761 10.5 1761 12 Q 1761 13.5 1761 15 Q 1761 16.5 1761 18 Q 1761 19.5 1761 21 Q 1761 22.5 1761 24 Q 1761 25.5 1761 27 Q 1761 28.5 1761 30 Q 1761 31.5 1761 33 Q 1761 34.5 1761 36 Q 1761 37.5 1761 39 Q 1761 40.5 1761 42 Q 1761 43.5 1761 45 Q 1761 46.5 1761 48 Q 1761 49.5 1761 51 Q 1761 52.5 1761 54 Q 1761 55.5 1761 57 Q 1761 58.5 1761 60 Q 1761 61.5 1761 63 Q 1761 64.5 1761 66 Q 1761 67.5 1761 69 Q 1761 70.5 1761 72 Q 1761 73.5 1761 75 Q 1761 76.5 1761 78 Q 1761 79.5 1761 81 Q 1761 82.5 1761 84 Q 1761 85.5 1761 87 Q 1761 88.5 1761 90 Q 1761 91.5 1761 93 Q 1761 94.5 1761 96 Q 1761 97.5 1761 99 Q 1761 100.5 1761 102 Q 1761 103.5 1761 105 Q 1761 106.5 1761 108 Q 1761 109.5 1761 111 Q 1761 112.5 1761 114 Q 1761 115.5 1761 117 Q 1761 118.5 1761 120 Q 1761 121.5 1761 123 Q 1761 124.5 1761 126 Q 1761 127.5 1761 129 Q 1761 130.5 1761 132 Q 1761 133.5 1761 135 Q 1761 136.5 1761 138 Q 1761 139.5 1761 141 Q 1761 142.5 1761 144 Q 1761 145.5 1761 147 Q 1761 148.5 1761 150 Q 1761 151.5 1761 153 Q 1761 154.5 1761 156 Q 1761 157.5 1761 159 Q 1761 160.5 1761 162 Q 1761 163.5 1761 165 Q 1761 166.5 1761 168 Q 1761 169.5 1761 171 Q 1761 172.5 1761 174 Q 1761 175.5 1761 177 Q 1761 178.5 1761 180 Q 1761 181.5 1761 183 Q 1761 184.5 1761 186 Q 1761 187.5 1761 189 Q 1761 190.5 1761 192 Q 1761 193.5 1761 195 Q 1761 196.5 1761 198 Q 1761 199.5 1761 201 Q 1761 202.5 1761 204 Q 1761 205.5 1761 207 Q 1761 208.5 1761 210 Q 1761 211.5 1761 213 Q 1761 214.5 1761 216 Q 1761 217.5 1761 219 Q 1761 220.5 1761 222 Q 1761 223.5 1761 225 Q 1761 226.5 1761 228 Q 1761 229.5 1761 231 Q 1761 232.5 1761 234 Q 1761 235.5 1761 237 Q 1761 238.5 1761 240 Q 1761 241.5 1761 243 Q 1761 244.5 1761 246 Q 1761 247.5 1761 249 Q 1761 250.5 1761 252 Q 1761 253.5 1761 255 Q 1761 256.5 1761 258 Q 1761 259.5 1761 261 Q 1761 262.5 1761 264 Q 1761 265.5 1761 267 Q 1761 268.5 1761 270 Q 1761 271.5 1761 273 Q 1761 274.5 1761 276 Q 1761 277.5 1761 279 Q 1761 280.5 1761 282 Q 1761 283.5 1761 285 Q 1761 286.5 1761 288 Q 1761 289.5 1761 291 Q 1761 292.5 1761 294 Q 1761 295.5 1761 297 Q 1761 298.5 1761 300 Q 1761 301.5 1761 303 Q 1761 304.5 1761 306 Q 1761 307.5 1761 309 Q 1761 310.5 1761 312 Q 1761 313.5 1761 315 Q 1761 316.5 1761 318 Q 1761 319.5 1761 321 Q 1761 322.5 1761 324 Q 1761 325.5 1761 327 Q 1761 328.5 1761 330 Q 1761 331.5 1761 333 Q 1761 334.5 1761 336 Q 1761 337.5 1761 339 Q 1761 340.5 1761 342 Q 1761 343.5 1761 345 Q 1761 346.5 1761 348 Q 1761 349.5 1761 351 Q 1761 352.5 1761 354 Q 1761 355.5 1761 357 Q 1761 358.5 1761 360 Q 1761 361.5 1761 363 Q 1761 364.5 1761 366 Q 1761 367.5 1761 369 Q 1761 370.5 1761 372 Q 1761 373.5 1761 375 Q 1761 376.5 1761 378 Q 1761 379.5 1761 381 Q 1761 382.5 1761 384 Q 1761 385.5 1761 387 Q 1761 388.5 1761 390 Q 1761 391.5 1761 393 Q 1761 394.5 1761 396 Q 1761 397.5 1761 399 Q 1761 400.5 1761 402 Q 1761 403.5 1761 405 Q 1761 406.5 1761 408 Q 1761 409.5 1761 411 Q 1761 412.5 1761 414 Q 1761 415.5 1761 417 Q 1761 418.5 1761 420 Q 1761 421.5 1761 423 Q 1761 424.5 1761 426 Q 1761 427.5 1761 429 Q 1761 430.5 1761 432 Q 1761 433.5 1761 435 Q 1761 436.5 1761 438 Q 1761 439.5 1761 441 Q 1761 442.5 1761 444 Q 1761 445.5 1761 447 Q 1761 448.5 1761 450 Q 1761 451.5 1761 453 Q 1761 454.5 1761 456 Q 1761 457.5 1761 459 Q 1761 460.5 1761 462 Q 1761 463.5 1761 465 Q 1761 466.5 1761 468 Q 1761 469.5 1761 471 Q 1761 472.5 1761 474 Q 1761 475.5 1761 477 Q 1761 478.5 1761 480 Q 1761 481.5 1761 483 Q 1761 484.5 1761 486 Q 1761 487.5 1761 489 Q 1761 490.5 1761 492 Q 1761 493.5 1761 495 Q 1761 496.5 1761 498 Q 1761 499.5 1761 501 Q 1761 502.5 1761 504 Q 1761 505.5 1761 507 Q 1761 508.5 1761 510 Q 1761 511.5 1761 513 Q 1761 514.5 1761 516 Q 1761 517.5 1761 519 Q 1761 520.5 1761 522 Q 1761 523.5 1761 525 Q 1761 526.5 1761 528 Q 1761 529.5 1761 531 Q 1761 532.5 1761 534 Q 1761 535.5 1761 537 Q 1761 538.5 1761 540 Q 1761 541.5 1761 543 Q 1761 544.5 1761 546 Q 1761 547.5 1761 549 Q 1761 550.5 1761 552 Q 1761 553.5 1761 555 Q 1761 556.5 1761 558 Q 1761 559.5 1761 561 Q 1761 562.5 1761 564 Q 1761 565.5 1761 567 Q 1761 568.5 1761 570 Q 1761 571.5 1761 573 Q 1761 574.5 1761 576 Q 1761 577.5 1761 579 Q 1761 580.5 1761 582 Q 1761 583.5 1761 585 Q 1761 586.5 1761 588 Q 1761 589.5 1761 591 Q 1761 592.5 1761 594 Q 1761 595.5 1761 597 Q 1761 598.5 1761 600 Q 1761 601.5 1761 603 Q 1761 604.5 1761 606 Q 1761 607.5 1761 609 Q 1761 610.5 1761 612 Q 1761 613.5 1761 615 Q 1761 616.5 1761 618 Q 1761 619.5 1761 621 Q 1761 622.5 1761 624 Q 1761 625.5 1761 627 Q 1761 628.5 1761 630 Q 1761 631.5 1761 633 Q 1761 634.5 1761 636 Q 1761 637.5 1761 639 Q 1761 640.5 1761 642 Q 1761 643.5 1761 645 Q 1761 646.5 1761 648 Q 1761 649.5 1761 651 Q 1761 652.5 1761 654 Q 1761 655.5 1761 657 Q 1761 658.5 1761 660 Q 1761 661.5 1761 663 Q 1761 664.5 1761 666 Q 1761 667.5 1761 669 Q 1761 670.5 1761 672 Q 1761 673.5 1761 675 Q 1761 676.5 1761 678 Q 1761 679.5 1761 681 Q 1761 682.5 1761 684 Q 1761 685.5 1761 687 Q 1761 688.5 1761 690 Q 1761 691.5 1761 693 Q 1761 694.5 1761 696 Q 1761 697.5 1761 699 Q 1761 700.5 1761 702 Q 1761 703.5 1761 705 Q 1761 706.5 1761 708 Q 1761 709.5 1761 711 Q 1761 712.5 1761 714 Q 1761 715.5 1761 717 Q 1761 718.5 1761 720 Q 1761 721.5 1761 723 Q 1761 724.5 1761 726 Q 1761 727.5 1761 729 Q 1761 730.5 1761 732 Q 1761 733.5 1761 735 Q 1761 736.5 1761 738 Q 1761 739.5 1761 741 Q 1761 742.5 1761 744 Q 1761 745.5 1761 747 Q 1761 748.5 1761 750 Q 1761 751.5 1761 753 Q 1761 754.5 1761 756 Q 1761 757.5 1761 759 Q 1761 760.5 1761 762 Q 1761 763.5 1761 765 Q 1761 766.5 1761 768 Q 1761 769.5 1761 771 Q 1761 772.5 1761 774 Q 1761 775.5 1761 777 Q 1761 778.5 1761 780 Q 1761 781.5 1761 783 Q 1761 784.5 1761 786 Q 1761 787.5 1761 789 Q 1761 790.5 1761 792 Q 1761 793.5 1761 795 Q 1761 796.5 1761 798 Q 1761 799.5 1761 801 Q 1761 802.5 1761 804 Q 1761 805.5 1761 807 Q 1761 808.5 1761 810 Q 1761 811.5 1761 813 Q 1761 814.5 1761 816 Q 1761 817.5 1761 819 Q 1761 820.5 1761 822 Q 1761 823.5 1761 825 Q 1761 826.5 1761 828 Q 1761 829.5 1761 831 Q 1761 832.5 1761 834 Q 1761 835.5 1761 837 Q 1761 838.5 1761 840 Q 1761 841.5 1761 843 Q 1761 844.5 1761 846 Q 1761 847.5 1761 849 Q 1761 850.5 1761 852 Q 1761 853.5 1761 855 Q 1761 856.5 1761 858 Q 1761 859.5 1761 861 Q 1761 862.5 1761 864 Q 1761 865.5 1761 867 Q 1761 868.5 1761 870 Q 1761 871.5 1761 873 Q 1761 874.5 1761 876 Q 1761 877.5 1761 879 Q 1761 880.5 1761 882 Q 1761 883.5 1761 885 Q 1761 886.5 1761 888 Q 1761 889.5 1761 891 Q 1761 892.5 1761 894 Q 1761 895.5 1761 897 Q 1761 898.5 1761 900 Q 1761 901.5 1761 903 Q 1761 904.5 1761 906 Q 1761 907.5 1761 909 Q 1761 910.5 1761 912 Q 1761 913.5 1761 915 Q 1761 916.5 1761 918 Q 1761 919.5 1761 921 Q 1761 922.5 1761 924 Q 1761 925.5 1761 927 Q 1761 928.5 1761 930 Q 1761 931.5 1761 933 Q 1761 934.5 1761 936 Q 1761 937.5 1761 939 Q 1761 940.5 1761 942 Q 1761 943.5 1761 945 Q 1761 946.5 1761 948 Q 1761 949.5 1761 951 Q 1761 952.5 1761 954 Q 1761 955.5 1761 957 Q 1761 958.5 1761 960 Q 1761 961.5 1761 963 Q 1761 964.5 1761 966 Q 1761 967.5 1761 969 Q 1761 970.5 1761 972 Q 1761 973.5 1761 975 Q 1761 976.5 1761 978 Q 1761 979.5 1761 981 Q 1761 982.5 1761 984 Q 1761 985.5 1761 987 Q 1761 988.5 1761 990 Q 1761 991.5 1761 993 Q 1761 994.5 1761 996 Q 1761 997.5 1761 999 Q 1761 1000.5 1761 1002 Q 1761 1003.5 1761 1005 Q 1761 1006.5 1761 1008 Q 1761 1009.5 1761 1011 Q 1761 1012.5 1761 1014 Q 1761 1015.5 1761 1017 Q 1761 1018.5 1761 1020 Q 1761 1021.5 1761 1023 Q 1761 1024.5 1761 1026 Q 1761 1027.5 1761 1029 Q 1761 1030.5 1761 1032 Q 1761 1033.5 1761 1035 Q 1761 1036.5 1761 1038 Q 1761 1039.5 1761 1041 Q 1761 1042.5 1761 1044 Q 1761 1045.5 1761 1047 Q 1761 1048.5 1761 1050 Q 1761 1051.5 1761 1053 Q 1761 1054.5 1761 1056 Q 1761 1057.5 1761 1059 Q 1761 1060.5 1761 1062 Q 1761 1063.5 1761 1065 Q 1761 1066.5 1761 1068 Q 1761 1069.5 1761 1071 Q 1761 1072.5 1761 1074 Q 1761 1075.5 1761 1077 Q 1761 1078.5 1761 1080 Q 1761 1081.5 1761 1083 Q 1761 1084.5 1761 1086 Q 1761 1087.5 1761 1089 Q 1761 1090.5 1761 1092 Q 1761 1093.5 1761 1095 Q 1761 1096.5 1761 1098 Q 1761 1099.5 1761 1101 Q 1761 1102.5 1761 1104 Q 1761 1105.5 1761 1107 Q 1761 1108.5 1761 1110 Q 1761 1111.5 1761 1113 Q 1761 1114.5 1761 1116 Q 1761 1117.5 1761 1119 Q 1761 1120.5 1761 1122 Q 1761 1123.5 1761 1125 Q 1761 1126.5 1761 1128 Q 1761 1129.5 1761 1131 Q 1761 1132.5 1761 1134 Q 1761 1135.5 1761 1137 Q 1761 1138.5 1761 1140 Q 1761 1141.5 1761 1143 Q 1761 1144.5 1761 1146 Q 1761 1147.5 1761 1149 Q 1761 1150.5 1761 1152 Q 1761 1153.5 1761 1155 Q 1761 1156.5 1761 1158 Q 1761 1159.5 1761 1161 Q 1761 1162.5 1761 1164 Q 1761 1165.5 1761 1167 Q 1761 1168.5 1761 1170 Q 1761 1171.5 1761 1173 Q 1761 1174.5 1761 1176 Q 1761 1177.5 1761 1179 Q 1761 1180.5 1761 1182 Q 1761 1183.5 1761 1185 Q 1761 1186.5 1761 1188 Q 1761 1189.5 1761 1191 Q 1761 1192.5 1761 1194 Q 1761 1195.5 1761 1197 Q 1761 1198.5 1761 1200 Q 1761 1201.5 1761 1203 Q 1761 1204.5 1761 1206 Q 1761 1207.5 1761 1209 Q 1761 1210.5 1761 1212 Q 1761 1213.5 1761 1215 Q 1761 1216.5 1761 1218 Q 1761 1219.5 1761 1221 Q 1761 1222.5 1761 1224 Q 1761 1225.5 1761 1227 Q 1761 1228.5 1761 1230 Q 1761 1231.5 1761 1233 Q 1761 1234.5 1761 1236 Q 1761 1237.5 1761 1239 Q 1761 1240.5 1761 1242 Q 1761 1243.5 1761 1245 Q 1761 1246.5 1761 1248 Q 1761 1249.5 1761 1251 Q 1761 1252.5 1761 1254 Q 1761 1255.5 1761 1257 Q 1761 1258.5 1761 1260 Q 1761 1261.5 1761 1263 Q 1761 1264.5 1761 1266 Q 1761 1267.5 1761 1269 Q 1761 1270.5 1761 1272 Q 1761 1273.5 1761 1275 Q 1761 1276.5 1761 1278 Q 1761 1279.5 1761 1281 Q 1761 1282.5 1761 1284 Q 1761 1285.5 1761 1287 Q 1761 1288.5 1761 1290 Q 1761 1291.5 1761 1293 Q 1761 1294.5 1761 1296 Q 1761 1297.5 1761 1299 Q 1761 1300.5 1761 1302 Q 1761 1303.5 1761 1305 Q 1761 1306.5 1761 1308 Q 1761 1309.5 1761 1311 Q 1761 1312.5 1761 1314 Q 1761 1315.5 1761 1317 Q 1761 1318.5 1761 1320 Q 1761 1321.5 1761 1323 Q 1761 1324.5 1761 1326 Q 1761 1327.5 1761 1329 Q 1761 1330.5 1761 1332 Q 1761 1333.5 1761 1335 Q 1761 1336.5 1761 1338 Q 1761 1339.5 1761 1341 Q 1761 1342.5 1761 1344 Q 1761 1345.5 1761 1347 Q 1761 1348.5 1761 1350 Q 1761 1351.5 1761 1353 Q 1761 1354.5 1761 1356 Q 1761 1357.5 1761 1359 Q 1761 1360.5 1761 1362 Q 1761 1363.5 1761 1365 Q 1761 1366.5 1761 1368 Q 1761 1369.5 1761 1371 Q 1761 1372.5 1761 1374 Q 1761 1375.5 1761 1377 Q 1761 1378.5 1761 1380 Q 1761 1381.5 1761 1383 Q 1761 1384.5 1761 1386 Q 1761 1387.5 1761 1389 Q 1761 1390.5 1761 1392 Q 1761 1393.5 1761 1395 Q 1761 1396.5 1761 1398 Q 1761 1399.5 1761 1401 Q 1761 1402.5 1761 1404 Q 1761 1405.5 1761 1407 Q 1761 1408.5 1761 1410 Q 1761 1411.5 1761 1413 Q 1761 1414.5 1761 1416 Q 1761 1417.5 1761 1419 Q 1761 1420.5 1761 1422 Q 1761 1423.5 1761 1425 Q 1761 1426.5 1761 1428 Q 1761 1429.5 1761 1431 Q 1761 1432.5 1761 1434 Q 1761 1435.5 1761 1437 Q 1761 1438.5 1761 1440 Q 1761 1441.5 1761 1443 Q 1761 1444.5 1761 1446 Q 1761 1447.5 1761 1449 Q 1761 1450.5 1761 1452 Q 1761 1453.5 1761 1455 Q 1761 1456.5 1761 1458 Q 1761 1459.5 1761 1461 Q 1761 1462.5 1761 1464 Q 1761 1465.5 1761 1467 Q 1761 1468.5 1761 1470 Q 1761 1471.5 1761 1473 Q 1761 1474.5 1761 1476 Q 1761 1477.5 1761 1479 Q 1761 1480.5 1761 1482 Q 1761 1483.5 1761 1485 Q 1761 1486.5 1761 1488 Q 1761 1489.5 1761 1491 Q 1761 1492.5 1761 1494 Q 1761 1495.5 1761 1497 Q 1761 1498.5 1761 1500 Q 1761 1501.5 1761 1503 Q 1761 1504.5 1761 1506 Q 1761 1507.5 1761 1509 Q 1761 1510.5 1761 1512 Q 1761 1513.5 1761 1515 Q 1761 1516.5 1761 1518 Q 1761 1519.5 1761 1521 Q 1761 1522.5 1761 1524 Q 1761 1525.5 1761 1527 Q 1761 1528.5 1761 1530 Q 1761 1531.5 1761 1533 Q 1761 1534.5 1761 1536 Q 1761 1537.5 1761 1539 Q 1761 1540.5 1761 1542 Q 1761 1543.5 1761 1545 Q 1761 1546.5 1761 1548 Q 1761 1549.5 1761 1551 Q 1761 1552.5 1761 1554 Q 1761 1555.5 1761 1557 Q 1761 1558.5 1761 1560 Q 1761 1561.5 1761 1563 Q 1761 1564.5 1761 1566 Q 1761 1567.5 1761 1569 Q 1761 1570.5 1761 1572 Q 1761 1573.5 1761 1575 Q 1761 1576.5 1761 1578 Q 1761 1579.5 1761 1581 Q 1761 1582.5 1761 1584 Q 1761 1584 1761 1584 Q 1759.5 1584 1758 1584 Q 1756.5 1584 1755 1584 Q 1753.5 1584 1752 1584 Q 1750.5 1584 1749 1584 Q 1747.5 1584 1746 1584 Q 1744.5 1584 1743 1584 Q 1741.5 1584 1740 1584 Q 1738.5 1584 1737 1584 Q 1735.5 1584 1734 1584 Q 1732.5 1584 1731 1584 Q 1729.5 1584 1728 1584 Q 1726.5 1584 1725 1584 Q 1723.5 1584 1722 1584 Q 1720.5 1584 1719 1584 Q 1717.5 1584 1716 1584 Q 1714.5 1584 1713 1584 Q 1711.5 1584 1710 1584 Q 1708.5 1584 1707 1584 Q 1705.5 1584 1704 1584 Q 1702.5 1584 1701 1584 Q 1699.5 1584 1698 1584 Q 1696.5 1584 1695 1584 Q 1693.5 1584 1692 1584 Q 1690.5 1584 1689 1584 Q 1687.5 1584 1686 1584 Q 1684.5 1584 1683 1584 Q 1681.5 1584 1680 1584 Q 1678.5 1584 1677 1584 Q 1675.5 1584 1674 1584 Q 1672.5 1584 1671 1584 Q 1669.5 1584 1668 1584 Q 1666.5 1584 1665 1584 Q 1663.5 1584 1662 1584 Q 1660.5 1584 1659 1584 Q 1657.5 1584 1656 1584 Q 1654.5 1584 1653 1584 Q 1651.5 1584 1650 1584 Q 1648.5 1584 1647 1584 Q 1645.5 1584 1644 1584 Q 1642.5 1584 1641 1584 Q 1639.5 1584 1638 1584 Q 1636.5 1584 1635 1584 Q 1633.5 1584 1632 1584 Q 1630.5 1584 1629 1584 Q 1627.5 1584 1626 1584 Q 1624.5 1584 1623 1584 Q 1621.5 1584 1620 1584 Q 1618.5 1584 1617 1584 Q 1615.5 1584 1614 1584 Q 1612.5 1584 1611 1584 Q 1609.5 1584 1608 1584 Q 1606.5 1584 1605 1584 Q 1603.5 1584 1602 1584 Q 1600.5 1584 1599 1584 Q 1597.5 1584 1596 1584 Q 1594.5 1584 1593 1584 Q 1591.5 1584 1590 1584 Q 1588.5 1584 1587 1584 Q 1585.5 1584 1584 1584 Q 1582.5 1584 1581 1584 Q 1579.5 1584 1578 1584 Q 1576.5 1584 1575 1584 Q 1573.5 1584 1572 1584 Q 1570.5 1584 1569 1584 Q 1567.5 1584 1566 1584 Q 1564.5 1584 1563 1584 Q 1561.5 1584 1560 1584 Q 1558.5 1584 1557 1584 Q 1555.5 1584 1554 1584 Q 1552.5 1584 1551 1584 Q 1549.5 1584 1548 1584 Q 1546.5 1584 1545 1584 Q 1543.5 1584 1542 1584 Q 1540.5 1584 1539 1584 Q 1537.5 1584 1536 1584 Q 1534.5 1584 1533 1584 Q 1531.5 1584 1530 1584 Q 1528.5 1584 1527 1584 Q 1525.5 1584 1524 1584 Q 1522.5 1584 1521 1584 Q 1519.5 1584 1518 1584 Q 1516.5 1584 1515 1584 Q 1513.5 1584 1512 1584 Q 1510.5 1584 1509 1584 Q 1507.5 1584 1506 1584 Q 1504.5 1584 1503 1584 Q 1501.5 1584 1500 1584 Q 1498.5 1584 1497 1584 Q 1495.5 1584 1494 1584 Q 1492.5 1584 1491 1584 Q 1489.5 1584 1488 1584 Q 1486.5 1584 1485 1584 Q 1483.5 1584 1482 1584 Q 1480.5 1584 1479 1584 Q 1477.5 1584 1476 1584 Q 1474.5 1584 1473 1584 Q 1471.5 1584 1470 1584 Q 1468.5 1584 1467 1584 Q 1465.5 1584 1464 1584 Q 1462.5 1584 1461 1584 Q 1459.5 1584 1458 1584 Q 1456.5 1584 1455 1584 Q 1453.5 1584 1452 1584 Q 1450.5 1584 1449 1584 Q 1447.5 1584 1446 1584 Q 1444.5 1584 1443 1584 Q 1441.5 1584 1440 1584 Q 1438.5 1584 1437 1584 Q 1435.5 1584 1434 1584 Q 1432.5 1584 1431 1584 Q 1429.5 1584 1428 1584 Q 1426.5 1584 1425 1584 Q 1423.5 1584 1422 1584 Q 1420.5 1584 1419 1584 Q 1417.5 1584 1416 1584 Q 1414.5 1584 1413 1584 Q 1411.5 1584 1410 1584 Q 1408.5 1584 1407 1584 Q 1405.5 1584 1404 1584 Q 1402.5 1584 1401 1584 Q 1399.5 1584 1398 1584 Q 1396.5 1584 1395 1584 Q 1393.5 1584 1392 1584 Q 1390.5 1584 1389 1584 Q 1387.5 1584 1386 1584 Q 1384.5 1584 1383 1584 Q 1381.5 1584 1380 1584 Q 1378.5 1584 1377 1584 Q 1375.5 1584 1374 1584 Q 1372.5 1584 1371 1584 Q 1369.5 1584 1368 1584 Q 1366.5 1584 1365 1584 Q 1363.5 1584 1362 1584 Q 1360.5 1584 1359 1584 Q 1357.5 1584 1356 1584 Q 1354.5 1584 1353 1584 Q 1351.5 1584 1350 1584 Q 1348.5 1584 1347 1584 Q 1345.5 1584 1344 1584 Q 1342.5 1584 1341 1584 Q 1339.5 1584 1338 1584 Q 1336.5 1584 1335 1584 Q 1333.5 1584 1332 1584 Q 1330.5 1584 1329 1584 Q 1327.5 1584 1326 1584 Q 1324.5 1584 1323 1584 Q 1321.5 1584 1320 1584 Q 1318.5 1584 1317 1584 Q 1315.5 1584 1314 1584 Q 1312.5 1584 1311 1584 Q 1309.5 1584 1308 1584 Q 1306.5 1584 1305 1584 Q 1303.5 1584 1302 1584 Q 1300.5 1584 1299 1584 Q 1297.5 1584 1296 1584 Q 1294.5 1584 1293 1584 Q 1291.5 1584 1290 1584 Q 1288.5 1584 1287 1584 Q 1285.5 1584 1284 1584 Q 1282.5 1584 1281 1584 Q 1279.5 1584 1278 1584 Q 1276.5 1584 1275 1584 Q 1273.5 1584 1272 1584 Q 1270.5 1584 1269 1584 Q 1267.5 1584 1266 1584 Q 1264.5 1584 1263 1584 Q 1261.5 1584 1260 1584 Q 1258.5 1584 1257 1584 Q 1255.5 1584 1254 1584 Q 1252.5 1584 1251 1584 Q 1249.5 1584 1248 1584 Q 1246.5 1584 1245 1584 Q 1243.5 1584 1242 1584 Q 1240.5 1584 1239 1584 Q 1237.5 1584 1236 1584 Q 1234.5 1584 1233 1584 Q 1231.5 1584 1230 1584 Q 1228.5 1584 1227 1584 Q 1225.5 1584 1224 1584 Q 1222.5 1584 1221 1584 Q 1219.5 1584 1218 1584 Q 1216.5 1584 1215 1584 Q 1213.5 1584 1212 1584 Q 1210.5 1584 1209 1584 Q 1207.5 1584 1206 1584 Q 1204.5 1584 1203 1584 Q 1201.5 1584 1200 1584 Q 1198.5 1584 1197 1584 Q 1195.5 1584 1194 1584 Q 1192.5 1584 1191 1584 Q 1189.5 1584 1188 1584 Q 1186.5 1584 1185 1584 Q 1183.5 1584 1182 1584 Q 1180.5 1584 1179 1584 Q 1177.5 1584 1176 1584 Q 1174.5 1584 1173 1584 Q 1171.5 1584 1170 1584 Q 1168.5 1584 1167 1584 Q 1165.5 1584 1164 1584 Q 1162.5 1584 1161 1584 Q 1159.5 1584 1158 1584 Q 1156.5 1584 1155 1584 Q 1153.5 1584 1152 1584 Q 1150.5 1584 1149 1584 Q 1147.5 1584 1146 1584 Q 1144.5 1584 1143 1584 Q 1141.5 1584 1140 1584 Q 1138.5 1584 1137 1584 Q 1135.5 1584 1134 1584 Q 1132.5 1584 1131 1584 Q 1129.5 1584 1128 1584 Q 1126.5 1584 1125 1584 Q 1123.5 1584 1122 1584 Q 1120.5 1584 1119 1584 Q 1117.5 1584 1116 1584 Q 1114.5 1584 1113 1584 Q 1111.5 1584 1110 1584 Q 1108.5 1584 1107 1584 Q 1105.5 1584 1104 1584 Q 1102.5 1584 1101 1584 Q 1099.5 1584 1098 1584 Q 1096.5 1584 1095 1584 Q 1093.5 1584 1092 1584 Q 1090.5 1584 1089 1584 Q 1087.5 1584 1086 1584 Q 1084.5 1584 1083 1584 Q 1081.5 1584 1080 1584 Q 1078.5 1584 1077 1584 Q 1075.5 1584 1074 1584 Q 1072.5 1584 1071 1584 Q 1069.5 1584 1068 1584 Q 1066.5 1584 1065 1584 Q 1063.5 1584 1062 1584 Q 1060.5 1584 1059 1584 Q 1057.5 1584 1056 1584 Q 1054.5 1584 1053 1584 Q 1051.5 1584 1050 1584 Q 1048.5 1584 1047 1584 Q 1045.5 1584 1044 1584 Q 1042.5 1584 1041 1584 Q 1039.5 1584 1038 1584 Q 1036.5 1584 1035 1584 Q 1033.5 1584 1032 1584 Q 1030.5 1584 1029 1584 Q 1027.5 1584 1026 1584 Q 1024.5 1584 1023 1584 Q 1021.5 1584 1020 1584 Q 1018.5 1584 1017 1584 Q 1015.5 1584 1014 1584 Q 1012.5 1584 1011 1584 Q 1009.5 1584 1008 1584 Q 1006.5 1584 1005 1584 Q 1003.5 1584 1002 1584 Q 1000.5 1584 999 1584 Q 997.5 1584 996 1584 Q 994.5 1584 993 1584 Q 991.5 1584 990 1584 Q 988.5 1584 987 1584 Q 985.5 1584 984 1584 Q 982.5 1584 981 1584 Q 979.5 1584 978 1584 Q 976.5 1584 975 1584 Q 973.5 1584 972 1584 Q 970.5 1584 969 1584 Q 967.5 1584 966 1584 Q 964.5 1584 963 1584 Q 961.5 1584 960 1584 Q 958.5 1584 957 1584 Q 955.5 1584 954 1584 Q 952.5 1584 951 1584 Q 949.5 1584 948 1584 Q 946.5 1584 945 1584 Q 943.5 1584 942 1584 Q 940.5 1584 939 1584 Q 937.5 1584 936 1584 Q 934.5 1584 933 1584 Q 931.5 1584 930 1584 Q 928.5 1584 927 1584 Q 925.5 1584 924 1584 Q 922.5 1584 921 1584 Q 919.5 1584 918 1584 Q 916.5 1584 915 1584 Q 913.5 1584 912 1584 Q 910.5 1584 909 1584 Q 907.5 1584 906 1584 Q 904.5 1584 903 1584 Q 901.5 1584 900 1584 Q 898.5 1584 897 1584 Q 895.5 1584 894 1584 Q 892.5 1584 891 1584 Q 889.5 1584 888 1584 Q 886.5 1584 885 1584 Q 883.5 1584 882 1584 Q 880.5 1584 879 1584 Q 877.5 1584 876 1584 Q 874.5 1584 873 1584 Q 871.5 1584 870 1584 Q 868.5 1584 867 1584 Q 865.5 1584 864 1584 Q 862.5 1584 861 1584 Q 859.5 1584 858 1584 Q 856.5 1584 855 1584 Q 853.5 1584 852 1584 Q 850.5 1584 849 1584 Q 847.5 1584 846 1584 Q 844.5 1584 843 1584 Q 841.5 1584 840 1584 Q 838.5 1584 837 1584 Q 835.5 1584 834 1584 Q 832.5 1584 831 1584 Q 829.5 1584 828 1584 Q 826.5 1584 825 1584 Q 823.5 1584 822 1584 Q 820.5 1584 819 1584 Q 817.5 1584 816 1584 Q 814.5 1584 813 1584 Q 811.5 1584 810 1584 Q 808.5 1584 807 1584 Q 805.5 1584 804 1584 Q 802.5 1584 801 1584 Q 799.5 1584 798 1584 Q 796.5 1584 795 1584 Q 793.5 1584 792 1584 Q 790.5 1584 789 1584 Q 787.5 1584 786 1584 Q 784.5 1584 783 1584 Q 781.5 1584 780 1584 Q 778.5 1584 777 1584 Q 775.5 1584 774 1584 Q 772.5 1584 771 1584 Q 769.5 1584 768 1584 Q 766.5 1584 765 1584 Q 763.5 1584 762 1584 Q 760.5 1584 759 1584 Q 757.5 1584 756 1584 Q 754.5 1584 753 1584 Q 751.5 1584 750 1584 Q 748.5 1584 747 1584 Q 745.5 1584 744 1584 Q 742.5 1584 741 1584 Q 739.5 1584 738 1584 Q 736.5 1584 735 1584 Q 733.5 1584 732 1584 Q 730.5 1584 729 1584 Q 727.5 1584 726 1584 Q 724.5 1584 723 1584 Q 721.5 1584 720 1584 Q 718.5 1584 717 1584 Q 715.5 1584 714 1584 Q 712.5 1584 711 1584 Q 709.5 1584 708 1584 Q 706.5 1584 705 1584 Q 703.5 1584 702 1584 Q 700.5 1584 699 1584 Q 697.5 1584 696 1584 Q 694.5 1584 693 1584 Q 691.5 1584 690 1584 Q 688.5 1584 687 1584 Q 685.5 1584 684 1584 Q 682.5 1584 681 1584 Q 679.5 1584 678 1584 Q 676.5 1584 675 1584 Q 673.5 1584 672 1584 Q 670.5 1584 669 1584 Q 667.5 1584 666 1584 Q 664.5 1584 663 1584 Q 661.5 1584 660 1584 Q 658.5 1584 657 1584 Q 655.5 1584 654 1584 Q 652.5 1584 651 1584 Q 649.5 1584 648 1584 Q 646.5 1584 645 1584 Q 643.5 1584 642 1584 Q 640.5 1584 639 1584 Q 637.5 1584 636 1584 Q 634.5 1584 633 1584 Q 631.5 1584 630 1584 Q 628.5 1584 627 1584 Q 625.5 1584 624 1584 Q 622.5 1584 621 1584 Q 619.5 1584 618 1584 Q 616.5 1584 615 1584 Q 613.5 1584 612 1584 Q 610.5 1584 609 1584 Q 607.5 1584 606 1584 Q 604.5 1584 603 1584 Q 601.5 1584 600 1584 Q 598.5 1584 597 1584 Q 595.5 1584 594 1584 Q 592.5 1584 591 1584 Q 589.5 1584 588 1584 Q 586.5 1584 585 1584 Q 583.5 1584 582 1584 Q 580.5 1584 579 1584 Q 577.5 1584 576 1584 Q 574.5 1584 573 1584 Q 571.5 1584 570 1584 Q 568.5 1584 567 1584 Q 565.5 1584 564 1584 Q 562.5 1584 561 1584 Q 559.5 1584 558 1584 Q 556.5 1584 555 1584 Q 553.5 1584 552 1584 Q 550.5 1584 549 1584 Q 547.5 1584 546 1584 Q 544.5 1584 543 1584 Q 541.5 1584 540 1584 Q 538.5 1584 537 1584 Q 535.5 1584 534 1584 Q 532.5 1584 531 1584 Q 529.5 1584 528 1584 Q 526.5 1584 525 1584 Q 523.5 1584 522 1584 Q 520.5 1584 519 1584 Q 517.5 1584 516 1584 Q 514.5 1584 513 1584 Q 511.5 1584 510 1584 Q 508.5 1584 507 1584 Q 505.5 1584 504 1584 Q 502.5 1584 501 1584 Q 499.5 1584 498 1584 Q 496.5 1584 495 1584 Q 493.5 1584 492 1584 Q 490.5 1584 489 1584 Q 487.5 1584 486 1584 Q 484.5 1584 483 1584 Q 481.5 1584 480 1584 Q 478.5 1584 477 1584 Q 475.5 1584 474 1584 Q 472.5 1584 471 1584 Q 469.5 1584 468 1584 Q 466.5 1584 465 1584 Q 463.5 1584 462 1584 Q 460.5 1584 459 1584 Q 457.5 1584 456 1584 Q 454.5 1584 453 1584 Q 451.5 1584 450 1584 Q 448.5 1584 447 1584 Q 445.5 1584 444 1584 Q 442.5 1584 441 1584 Q 439.5 1584 438 1584 Q 436.5 1584 435 1584 Q 433.5 1584 432 1584 Q 430.5 1584 429 1584 Q 427.5 1584 426 1584 Q 424.5 1584 423 1584 Q 421.5 1584 420 1584 Q 418.5 1584 417 1584 Q 415.5 1584 414 1584 Q 412.5 1584 411 1584 Q 409.5 1584 408 1584 Q 406.5 1584 405 1584 Q 403.5 1584 402 1584 Q 400.5 1584 399 1584 Q 397.5 1584 396 1584 Q 394.5 1584 393 1584 Q 391.5 1584 390 1584 Q 388.5 1584 387 1584 Q 385.5 1584 384 1584 Q 382.5 1584 381 1584 Q 379.5 1584 378 1584 Q 376.5 1584 375 1584 Q 373.5 1584 372 1584 Q 370.5 1584 369 1584 Q 367.5 1584 366 1584 Q 364.5 1584 363 1584 Q 361.5 1584 360 1584 Q 358.5 1584 357 1584 Q 355.5 1584 354 1584 Q 352.5 1584 351 1584 Q 349.5 1584 348 1584 Q 346.5 1584 345 1584 Q 343.5 1584 342 1584 Q 340.5 1584 339 1584 Q 337.5 1584 336 1584 Q 334.5 1584 333 1584 Q 331.5 1584 330 1584 Q 328.5 1584 327 1584 Q 325.5 1584 324 1584 Q 322.5 1584 321 1584 Q 319.5 1584 318 1584 Q 316.5 1584 315 1584 Q 313.5 1584 312 1584 Q 310.5 1584 309 1584 Q 307.5 1584 306 1584 Q 304.5 1584 303 1584 Q 301.5 1584 300 1584 Q 298.5 1584 297 1584 Q 295.5 1584 294 1584 Q 292.5 1584 291 1584 Q 289.5 1584 288 1584 Q 286.5 1584 285 1584 Q 283.5 1584 282 1584 Q 280.5 1584 279 1584 Q 277.5 1584 276 1584 Q 274.5 1584 273 1584 Q 271.5 1584 270 1584 Q 268.5 1584 267 1584 Q 265.5 1584 264 1584 Q 262.5 1584 261 1584 Q 259.5 1584 258 1584 Q 256.5 1584 255 1584 Q 253.5 1584 252 1584 Q 250.5 1584 249 1584 Q 247.5 1584 246 1584 Q 244.5 1584 243 1584 Q 241.5 1584 240 1584 Q 238.5 1584 237 1584 Q 235.5 1584 234 1584 Q 232.5 1584 231 1584 Q 229.5 1584 228 1584 Q 226.5 1584 225 1584 Q 223.5 1584 222 1584 Q 220.5 1584 219 1584 Q 217.5 1584 216 1584 Q 214.5 1584 213 1584 Q 211.5 1584 210 1584 Q 208.5 1584 207 1584 Q 205.5 1584 204 1584 Q 202.5 1584 201 1584 Q 199.5 1584 198 1584 Q 196.5 1584 195 1584 Q 193.5 1584 192 1584 Q 190.5 1584 189 1584 Q 187.5 1584 186 1584 Q 184.5 1584 183 1584 Q 181.5 1584 180 1584 Q 178.5 1584 177 1584 Q 175.5 1584 174 1584 Q 172.5 1584 171 1584 Q 169.5 1584 168 1584 Q 166.5 1584 165 1584 Q 163.5 1584 162 1584 Q 160.5 1584 159 1584 Q 157.5 1584 156 1584 Q 154.5 1584 153 1584 Q 151.5 1584 150 1584 Q 148.5 1584 147 1584 Q 145.5 1584 144 1584 Q 142.5 1584 141 1584 Q 139.5 1584 138 1584 Q 136.5 1584 135 1584 Q 133.5 1584 132 1584 Q 130.5 1584 129 1584 Q 127.5 1584 126 1584 Q 124.5 1584 123 1584 Q 121.5 1584 120 1584 Q 118.5 1584 117 1584 Q 115.5 1584 114 1584 Q 112.5 1584 111 1584 Q 109.5 1584 108 1584 Q 106.5 1584 105 1584 Q 103.5 1584 102 1584 Q 100.5 1584 99 1584 Q 97.5 1584 96 1584 Q 94.5 1584 93 1584 Q 91.5 1584 90 1584 Q 88.5 1584 87 1584 Q 85.5 1584 84 1584 Q 82.5 1584 81 1584 Q 79.5 1584 78 1584 Q 76.5 1584 75 1584 Q 73.5 1584 72 1584 Q 70.5 1584 69 1584 Q 67.5 1584 66 1584 Q 64.5 1584 63 1584 Q 61.5 1584 60 1584 Q 58.5 1584 57 1584 Q 55.5 1584 54 1584 Q 52.5 1584 51 1584 Q 49.5 1584 48 1584 Q 46.5 1584 45 1584 Q 43.5 1584 42 1584 Q 40.5 1584 39 1584 Q 37.5 1584 36 1584 Q 34.5 1584 33 1584 Q 31.5 1584 30 1584 Q 28.5 1584 27 1584 Q 25.5 1584 24 1584 Q 22.5 1584 21 1584 Q 19.5 1584 18 1584 Q 16.5 1584 15 1584 Q 13.5 1584 12 1584 Q 10.5 1584 9 1584 Q 7.5 1584 6 1584 Q 4.5 1584 3 1584 Q 1.5 1584 0 1584 Q 0 1584 0 1584 Q 0 1582.5 0 1581 Q 0 1579.5 0 1578 Q 0 1576.5 0 1575 Q 0 1573.5 0 1572 Q 0 1570.5 0 1569 Q 0 1567.5 0 1566 Q 0 1564.5 0 1563 Q 0 1561.5 0 1560 Q 0 1558.5 0 1557 Q 0 1555.5 0 1554 Q 0 1552.5 0 1551 Q 0 1549.5 0 1548 Q 0 1546.5 0 1545 Q 0 1543.5 0 1542 Q 0 1540.5 0 1539 Q 0 1537.5 0 1536 Q 0 1534.5 0 1533 Q 0 1531.5 0 1530 Q 0 1528.5 0 1527 Q 0 1525.5 0 1524 Q 0 1522.5 0 1521 Q 0 1519.5 0 1518 Q 0 1516.5 0 1515 Q 0 1513.5 0 1512 Q 0 1510.5 0 1509 Q 0 1507.5 0 1506 Q 0 1504.5 0 1503 Q 0 1501.5 0 1500 Q 0 1498.5 0 1497 Q 0 1495.5 0 1494 Q 0 1492.5 0 1491 Q 0 1489.5 0 1488 Q 0 1486.5 0 1485 Q 0 1483.5 0 1482 Q 0 1480.5 0 1479 Q 0 1477.5 0 1476 Q 0 1474.5 0 1473 Q 0 1471.5 0 1470 Q 0 1468.5 0 1467 Q 0 1465.5 0 1464 Q 0 1462.5 0 1461 Q 0 1459.5 0 1458 Q 0 1456.5 0 1455 Q 0 1453.5 0 1452 Q 0 1450.5 0 1449 Q 0 1447.5 0 1446 Q 0 1444.5 0 1443 Q 0 1441.5 0 1440 Q 0 1438.5 0 1437 Q 0 1435.5 0 1434 Q 0 1432.5 0 1431 Q 0 1429.5 0 1428 Q 0 1426.5 0 1425 Q 0 1423.5 0 1422 Q 0 1420.5 0 1419 Q 0 1417.5 0 1416 Q 0 1414.5 0 1413 Q 0 1411.5 0 1410 Q 0 1408.5 0 1407 Q 0 1405.5 0 1404 Q 0 1402.5 0 1401 Q 0 1399.5 0 1398 Q 0 1396.5 0 1395 Q 0 1393.5 0 1392 Q 0 1390.5 0 1389 Q 0 1387.5 0 1386 Q 0 1384.5 0 1383 Q 0 1381.5 0 1380 Q 0 1378.5 0 1377 Q 0 1375.5 0 1374 Q 0 1372.5 0 1371 Q 0 1369.5 0 1368 Q 0 1366.5 0 1365 Q 0 1363.5 0 1362 Q 0 1360.5 0 1359 Q 0 1357.5 0 1356 Q 0 1354.5 0 1353 Q 0 1351.5 0 1350 Q 0 1348.5 0 1347 Q 0 1345.5 0 1344 Q 0 1342.5 0 1341 Q 0 1339.5 0 1338 Q 0 1336.5 0 1335 Q 0 1333.5 0 1332 Q 0 1330.5 0 1329 Q 0 1327.5 0 1326 Q 0 1324.5 0 1323 Q 0 1321.5 0 1320 Q 0 1318.5 0 1317 Q 0 1315.5 0 1314 Q 0 1312.5 0 1311 Q 0 1309.5 0 1308 Q 0 1306.5 0 1305 Q 0 1303.5 0 1302 Q 0 1300.5 0 1299 Q 0 1297.5 0 1296 Q 0 1294.5 0 1293 Q 0 1291.5 0 1290 Q 0 1288.5 0 1287 Q 0 1285.5 0 1284 Q 0 1282.5 0 1281 Q 0 1279.5 0 1278 Q 0 1276.5 0 1275 Q 0 1273.5 0 1272 Q 0 1270.5 0 1269 Q 0 1267.5 0 1266 Q 0 1264.5 0 1263 Q 0 1261.5 0 1260 Q 0 1258.5 0 1257 Q 0 1255.5 0 1254 Q 0 1252.5 0 1251 Q 0 1249.5 0 1248 Q 0 1246.5 0 1245 Q 0 1243.5 0 1242 Q 0 1240.5 0 1239 Q 0 1237.5 0 1236 Q 0 1234.5 0 1233 Q 0 1231.5 0 1230 Q 0 1228.5 0 1227 Q 0 1225.5 0 1224 Q 0 1222.5 0 1221 Q 0 1219.5 0 1218 Q 0 1216.5 0 1215 Q 0 1213.5 0 1212 Q 0 1210.5 0 1209 Q 0 1207.5 0 1206 Q 0 1204.5 0 1203 Q 0 1201.5 0 1200 Q 0 1198.5 0 1197 Q 0 1195.5 0 1194 Q 0 1192.5 0 1191 Q 0 1189.5 0 1188 Q 0 1186.5 0 1185 Q 0 1183.5 0 1182 Q 0 1180.5 0 1179 Q 0 1177.5 0 1176 Q 0 1174.5 0 1173 Q 0 1171.5 0 1170 Q 0 1168.5 0 1167 Q 0 1165.5 0 1164 Q 0 1162.5 0 1161 Q 0 1159.5 0 1158 Q 0 1156.5 0 1155 Q 0 1153.5 0 1152 Q 0 1150.5 0 1149 Q 0 1147.5 0 1146 Q 0 1144.5 0 1143 Q 0 1141.5 0 1140 Q 0 1138.5 0 1137 Q 0 1135.5 0 1134 Q 0 1132.5 0 1131 Q 0 1129.5 0 1128 Q 0 1126.5 0 1125 Q 0 1123.5 0 1122 Q 0 1120.5 0 1119 Q 0 1117.5 0 1116 Q 0 1114.5 0 1113 Q 0 1111.5 0 1110 Q 0 1108.5 0 1107 Q 0 1105.5 0 1104 Q 0 1102.5 0 1101 Q 0 1099.5 0 1098 Q 0 1096.5 0 1095 Q 0 1093.5 0 1092 Q 0 1090.5 0 1089 Q 0 1087.5 0 1086 Q 0 1084.5 0 1083 Q 0 1081.5 0 1080 Q 0 1078.5 0 1077 Q 0 1075.5 0 1074 Q 0 1072.5 0 1071 Q 0 1069.5 0 1068 Q 0 1066.5 0 1065 Q 0 1063.5 0 1062 Q 0 1060.5 0 1059 Q 0 1057.5 0 1056 Q 0 1054.5 0 1053 Q 0 1051.5 0 1050 Q 0 1048.5 0 1047 Q 0 1045.5 0 1044 Q 0 1042.5 0 1041 Q 0 1039.5 0 1038 Q 0 1036.5 0 1035 Q 0 1033.5 0 1032 Q 0 1030.5 0 1029 Q 0 1027.5 0 1026 Q 0 1024.5 0 1023 Q 0 1021.5 0 1020 Q 0 1018.5 0 1017 Q 0 1015.5 0 1014 Q 0 1012.5 0 1011 Q 0 1009.5 0 1008 Q 0 1006.5 0 1005 Q 0 1003.5 0 1002 Q 0 1000.5 0 999 Q 0 997.5 0 996 Q 0 994.5 0 993 Q 0 991.5 0 990 Q 0 988.5 0 987 Q 0 985.5 0 984 Q 0 982.5 0 981 Q 0 979.5 0 978 Q 0 976.5 0 975 Q 0 973.5 0 972 Q 0 970.5 0 969 Q 0 967.5 0 966 Q 0 964.5 0 963 Q 0 961.5 0 960 Q 0 958.5 0 957 Q 0 955.5 0 954 Q 0 952.5 0 951 Q 0 949.5 0 948 Q 0 946.5 0 945 Q 0 943.5 0 942 Q 0 940.5 0 939 Q 0 937.5 0 936 Q 0 934.5 0 933 Q 0 931.5 0 930 Q 0 928.5 0 927 Q 0 925.5 0 924 Q 0 922.5 0 921 Q 0 919.5 0 918 Q 0 916.5 0 915 Q 0 913.5 0 912 Q 0 910.5 0 909 Q 0 907.5 0 906 Q 0 904.5 0 903 Q 0 901.5 0 900 Q 0 898.5 0 897 Q 0 895.5 0 894 Q 0 892.5 0 891 Q 0 889.5 0 888 Q 0 886.5 0 885 Q 0 883.5 0 882 Q 0 880.5 0 879 Q 0 877.5 0 876 Q 0 874.5 0 873 Q 0 871.5 0 870 Q 0 868.5 0 867 Q 0 865.5 0 864 Q 0 862.5 0 861 Q 0 859.5 0 858 Q 0 856.5 0 855 Q 0 853.5 0 852 Q 0 850.5 0 849 Q 0 847.5 0 846 Q 0 844.5 0 843 Q 0 841.5 0 840 Q 0 838.5 0 837 Q 0 835.5 0 834 Q 0 832.5 0 831 Q 0 829.5 0 828 Q 0 826.5 0 825 Q 0 823.5 0 822 Q 0 820.5 0 819 Q 0 817.5 0 816 Q 0 814.5 0 813 Q 0 811.5 0 810 Q 0 808.5 0 807 Q 0 805.5 0 804 Q 0 802.5 0 801 Q 0 799.5 0 798 Q 0 796.5 0 795 Q 0 793.5 0 792 Q 0 790.5 0 789 Q 0 787.5 0 786 Q 0 784.5 0 783 Q 0 781.5 0 780 Q 0 778.5 0 777 Q 0 775.5 0 774 Q 0 772.5 0 771 Q 0 769.5 0 768 Q 0 766.5 0 765 Q 0 763.5 0 762 Q 0 760.5 0 759 Q 0 757.5 0 756 Q 0 754.5 0 753 Q 0 751.5 0 750 Q 0 748.5 0 747 Q 0 745.5 0 744 Q 0 742.5 0 741 Q 0 739.5 0 738 Q 0 736.5 0 735 Q 0 733.5 0 732 Q 0 730.5 0 729 Q 0 727.5 0 726 Q 0 724.5 0 723 Q 0 721.5 0 720 Q 0 718.5 0 717 Q 0 715.5 0 714 Q 0 712.5 0 711 Q 0 709.5 0 708 Q 0 706.5 0 705 Q 0 703.5 0 702 Q 0 700.5 0 699 Q 0 697.5 0 696 Q 0 694.5 0 693 Q 0 691.5 0 690 Q 0 688.5 0 687 Q 0 685.5 0 684 Q 0 682.5 0 681 Q 0 679.5 0 678 Q 0 676.5 0 675 Q 0 673.5 0 672 Q 0 670.5 0 669 Q 0 667.5 0 666 Q 0 664.5 0 663 Q 0 661.5 0 660 Q 0 658.5 0 657 Q 0 655.5 0 654 Q 0 652.5 0 651 Q 0 649.5 0 648 Q 0 646.5 0 645 Q 0 643.5 0 642 Q 0 640.5 0 639 Q 0 637.5 0 636 Q 0 634.5 0 633 Q 0 631.5 0 630 Q 0 628.5 0 627 Q 0 625.5 0 624 Q 0 622.5 0 621 Q 0 619.5 0 618 Q 0 616.5 0 615 Q 0 613.5 0 612 Q 0 610.5 0 609 Q 0 607.5 0 606 Q 0 604.5 0 603 Q 0 601.5 0 600 Q 0 598.5 0 597 Q 0 595.5 0 594 Q 0 592.5 0 591 Q 0 589.5 0 588 Q 0 586.5 0 585 Q 0 583.5 0 582 Q 0 580.5 0 579 Q 0 577.5 0 576 Q 0 574.5 0 573 Q 0 571.5 0 570 Q 0 568.5 0 567 Q 0 565.5 0 564 Q 0 562.5 0 561 Q 0 559.5 0 558 Q 0 556.5 0 555 Q 0 553.5 0 552 Q 0 550.5 0 549 Q 0 547.5 0 546 Q 0 544.5 0 543 Q 0 541.5 0 540 Q 0 538.5 0 537 Q 0 535.5 0 534 Q 0 532.5 0 531 Q 0 529.5 0 528 Q 0 526.5 0 525 Q 0 523.5 0 522 Q 0 520.5 0 519 Q 0 517.5 0 516 Q 0 514.5 0 513 Q 0 511.5 0 510 Q 0 508.5 0 507 Q 0 505.5 0 504 Q 0 502.5 0 501 Q 0 499.5 0 498 Q 0 496.5 0 495 Q 0 493.5 0 492 Q 0 490.5 0 489 Q 0 487.5 0 486 Q 0 484.5 0 483 Q 0 481.5 0 480 Q 0 478.5 0 477 Q 0 475.5 0 474 Q 0 472.5 0 471 Q 0 469.5 0 468 Q 0 466.5 0 465 Q 0 463.5 0 462 Q 0 460.5 0 459 Q 0 457.5 0 456 Q 0 454.5 0 453 Q 0 451.5 0 450 Q 0 448.5 0 447 Q 0 445.5 0 444 Q 0 442.5 0 441 Q 0 439.5 0 438 Q 0 436.5 0 435 Q 0 433.5 0 432 Q 0 430.5 0 429 Q 0 427.5 0 426 Q 0 424.5 0 423 Q 0 421.5 0 420 Q 0 418.5 0 417 Q 0 415.5 0 414 Q 0 412.5 0 411 Q 0 409.5 0 408 Q 0 406.5 0 405 Q 0 403.5 0 402 Q 0 400.5 0 399 Q 0 397.5 0 396 Q 0 394.5 0 393 Q 0 391.5 0 390 Q 0 388.5 0 387 Q 0 385.5 0 384 Q 0 382.5 0 381 Q 0 379.5 0 378 Q 0 376.5 0 375 Q 0 373.5 0 372 Q 0 370.5 0 369 Q 0 367.5 0 366 Q 0 364.5 0 363 Q 0 361.5 0 360 Q 0 358.5 0 357 Q 0 355.5 0 354 Q 0 352.5 0 351 Q 0 349.5 0 348 Q 0 346.5 0 345 Q 0 343.5 0 342 Q 0 340.5 0 339 Q 0 337.5 0 336 Q 0 334.5 0 333 Q 0 331.5 0 330 Q 0 328.5 0 327 Q 0 325.5 0 324 Q 0 322.5 0 321 Q 0 319.5 0 318 Q 0 316.5 0 315 Q 0 313.5 0 312 Q 0 310.5 0 309 Q 0 307.5 0 306 Q 0 304.5 0 303 Q 0 301.5 0 300 Q 0 298.5 0 297 Q 0 295.5 0 294 Q 0 292.5 0 291 Q 0 289.5 0 288 Q 0 286.5 0 285 Q 0 283.5 0 282 Q 0 280.5 0 279 Q 0 277.5 0 276 Q 0 274.5 0 273 Q 0 271.5 0 270 Q 0 268.5 0 267 Q 0 265.5 0 264 Q 0 262.5 0 261 Q 0 259.5 0 258 Q 0 256.5 0 255 Q 0 253.5 0 252 Q 0 250.5 0 249 Q 0 247.5 0 246 Q 0 244.5 0 243 Q 0 241.5 0 240 Q 0 238.5 0 237 Q 0 235.5 0 234 Q 0 232.5 0 231 Q 0 229.5 0 228 Q 0 226.5 0 225 Q 0 223.5 0 222 Q 0 220.5 0 219 Q 0 217.5 0 216 Q 0 214.5 0 213 Q 0 211.5 0 210 Q 0 208.5 0 207 Q 0 205.5 0 204 Q 0 202.5 0 201 Q 0 199.5 0 198 Q 0 196.5 0 195 Q 0 193.5 0 192 Q 0 190.5 0 189 Q 0 187.5 0 186 Q 0 184.5 0 183 Q 0 181.5 0 180 Q 0 178.5 0 177 Q 0 175.5 0 174 Q 0 172.5 0 171 Q 0 169.5 0 168 Q 0 166.5 0 165 Q 0 163.5 0 162 Q 0 160.5 0 159 Q 0 157.5 0 156 Q 0 154.5 0 153 Q 0 151.5 0 150 Q 0 148.5 0 147 Q 0 145.5 0 144 Q 0 142.5 0 141 Q 0 139.5 0 138 Q 0 136.5 0 135 Q 0 133.5 0 132 Q 0 130.5 0 129 Q 0 127.5 0 126 Q 0 124.5 0 123 Q 0 121.5 0 120 Q 0 118.5 0 117 Q 0 115.5 0 114 Q 0 112.5 0 111 Q 0 109.5 0 108 Q 0 106.5 0 105 Q 0 103.5 0 102 Q 0 100.5 0 99 Q 0 97.5 0 96 Q 0 94.5 0 93 Q 0 91.5 0 90 Q 0 88.5 0 87 Q 0 85.5 0 84 Q 0 82.5 0 81 Q 0 79.5 0 78 Q 0 76.5 0 75 Q 0 73.5 0 72 Q 0 70.5 0 69 Q 0 67.5 0 66 Q 0 64.5 0 63 Q 0 61.5 0 60 Q 0 58.5 0 57 Q 0 55.5 0 54 Q 0 52.5 0 51 Q 0 49.5 0 48 Q 0 46.5 0 45 Q 0 43.5 0 42 Q 0 40.5 0 39 Q 0 37.5 0 36 Q 0 34.5 0 33 Q 0 31.5 0 30 Q 0 28.5 0 27 Q 0 25.5 0 24 Q 0 22.5 0 21 Q 0 19.5 0 18 Q 0 16.5 0 15 Q 0 13.5 0 12 Q 0 10.5 0 9 Q 0 7.5 0 6 Q 0 4.5 0 3 Q 0 1.5 0 0 Z" style="stroke: rgb(0, 0, 0); stroke-width: 1px; fill: none;"></path><g class="label" transform="translate(187.77150218208112,187.77150218208112)"><svg width="163.78902688583773" height="163.78902688583773" overflow="visible" viewBox="-50 -50 100 100" preserveAspectRatio="xMidYMid meet"><text font-family="Tahoma" font-size="50" dominant-baseline="middle" text-anchor="middle" fill="#000">0</text></svg></g><path data-facetId="1" d="M 537 474 Q 538.875 471 540.75 468 Q 542.625 463.875 544.5 459.75 Q 546.75 456.375 549 453 Q 551.25 448.875 553.5 444.75 Q 555.375 441 557.25 437.25 Q 559.5 433.125 561.75 429 Q 563.625 424.875 565.5 420.75 Q 567.375 417 569.25 413.25 Q 571.5 409.125 573.75 405 Q 575.625 400.875 577.5 396.75 Q 579.375 393 581.25 389.25 Q 583.875 385.5 586.5 381.75 Q 588.375 378 590.25 374.25 Q 592.5 370.125 594.75 366 Q 596.625 361.875 598.5 357.75 Q 600.375 354 602.25 350.25 Q 604.5 346.125 606.75 342 Q 608.625 337.875 610.5 333.75 Q 612.375 330 614.25 326.25 Q 616.5 322.125 618.75 318 Q 621 314.625 623.25 311.25 Q 625.5 307.125 627.75 303 Q 629.625 298.875 631.5 294.75 Q 633.375 291 635.25 287.25 Q 637.5 283.125 639.75 279 Q 641.625 274.875 643.5 270.75 Q 645.375 267 647.25 263.25 Q 649.5 259.125 651.75 255 Q 653.625 250.875 655.5 246.75 Q 657.75 243.375 660 240 Q 662.25 235.875 664.5 231.75 Q 666.375 228 668.25 224.25 Q 670.5 220.125 672.75 216 Q 674.625 211.875 676.5 207.75 Q 678.375 204 680.25 200.25 Q 682.5 196.125 684.75 192 Q 686.625 187.875 688.5 183.75 Q 690.375 180 692.25 176.25 Q 694.875 172.5 697.5 168.75 Q 699.375 165 701.25 161.25 Q 703.5 157.125 705.75 153 Q 707.625 148.875 709.5 144.75 Q 711.375 141 713.25 137.25 Q 716.25 134.625 719.25 132 Q 722.25 133.5 725.25 135 Q 727.5 139.125 729.75 143.25 Q 731.625 147 733.5 150.75 Q 735.375 154.875 737.25 159 Q 739.5 163.125 741.75 167.25 Q 744 170.625 746.25 174 Q 748.5 178.125 750.75 182.25 Q 752.625 186 754.5 189.75 Q 756.375 193.875 758.25 198 Q 760.5 202.125 762.75 206.25 Q 764.625 210 766.5 213.75 Q 768.375 217.875 770.25 222 Q 772.5 226.125 774.75 230.25 Q 776.625 234 778.5 237.75 Q 780.375 241.875 782.25 246 Q 784.5 250.125 786.75 254.25 Q 789 257.625 791.25 261 Q 793.5 265.125 795.75 269.25 Q 797.625 273 799.5 276.75 Q 801.375 280.875 803.25 285 Q 805.5 289.125 807.75 293.25 Q 809.625 297 811.5 300.75 Q 813.375 304.875 815.25 309 Q 817.5 313.125 819.75 317.25 Q 821.625 321 823.5 324.75 Q 825.375 328.875 827.25 333 Q 829.5 337.125 831.75 341.25 Q 834 344.625 836.25 348 Q 838.5 352.125 840.75 356.25 Q 842.625 360 844.5 363.75 Q 846.375 367.875 848.25 372 Q 850.5 376.125 852.75 380.25 Q 854.625 384 856.5 387.75 Q 858.375 391.875 860.25 396 Q 862.5 400.125 864.75 404.25 Q 866.625 408 868.5 411.75 Q 870.375 415.875 872.25 420 Q 874.5 424.125 876.75 428.25 Q 878.625 432 880.5 435.75 Q 883.125 439.5 885.75 443.25 Q 888 447 890.25 450.75 Q 892.125 451.875 894 453 Q 894 453 894 453 Q 894 453 894 453 Q 894.375 456.75 894.75 460.5 Q 896.625 464.625 898.5 468.75 Q 900.375 472.875 902.25 477 Q 904.5 481.125 906.75 485.25 Q 908.625 489 910.5 492.75 Q 912.375 496.875 914.25 501 Q 916.5 505.125 918.75 509.25 Q 920.625 513 922.5 516.75 Q 924.75 520.875 927 525 Q 929.25 528.375 931.5 531.75 Q 933.375 535.875 935.25 540 Q 937.5 544.125 939.75 548.25 Q 941.625 552 943.5 555.75 Q 945.375 559.875 947.25 564 Q 949.5 568.125 951.75 572.25 Q 953.625 576 955.5 579.75 Q 957.375 583.875 959.25 588 Q 961.5 592.125 963.75 596.25 Q 965.625 600 967.5 603.75 Q 969.75 607.875 972 612 Q 974.25 615.375 976.5 618.75 Q 978.375 622.875 980.25 627 Q 982.5 631.125 984.75 635.25 Q 986.625 639 988.5 642.75 Q 990.375 646.875 992.25 651 Q 994.5 655.125 996.75 659.25 Q 998.625 663 1000.5 666.75 Q 1002.375 670.875 1004.25 675 Q 1006.5 679.125 1008.75 683.25 Q 1010.625 687 1012.5 690.75 Q 1014.375 694.875 1016.25 699 Q 1018.875 702.75 1021.5 706.5 Q 1023.375 710.25 1025.25 714 Q 1027.5 718.125 1029.75 722.25 Q 1031.625 726 1033.5 729.75 Q 1035.375 733.875 1037.25 738 Q 1039.5 742.125 1041.75 746.25 Q 1043.625 750 1045.5 753.75 Q 1047.375 757.875 1049.25 762 Q 1051.5 766.125 1053.75 770.25 Q 1055.625 774 1057.5 777.75 Q 1059.375 781.875 1061.25 786 Q 1063.875 789.75 1066.5 793.5 Q 1068.375 797.25 1070.25 801 Q 1072.5 805.125 1074.75 809.25 Q 1076.625 813 1078.5 816.75 Q 1080.375 820.875 1082.25 825 Q 1084.5 829.125 1086.75 833.25 Q 1088.625 837 1090.5 840.75 Q 1092.375 844.875 1094.25 849 Q 1093.875 852.75 1093.5 856.5 Q 1089 857.25 1084.5 858 Q 1078.5 858 1072.5 858 Q 1066.5 858 1060.5 858 Q 1054.5 858 1048.5 858 Q 1042.5 858 1036.5 858 Q 1030.5 858 1024.5 858 Q 1018.5 858 1012.5 858 Q 1006.5 858 1000.5 858 Q 994.5 858 988.5 858 Q 982.5 858 976.5 858 Q 970.5 858 964.5 858 Q 958.5 858 952.5 858 Q 946.5 858 940.5 858 Q 934.5 858 928.5 858 Q 922.5 858 916.5 858 Q 910.5 858 904.5 858 Q 899.25 858 894 858 Q 894 858 894 858 Q 894 858 894 858 Q 890.25 858 886.5 858 Q 880.5 858 874.5 858 Q 868.5 858 862.5 858 Q 856.5 858 850.5 858 Q 844.5 858 838.5 858 Q 832.5 858 826.5 858 Q 820.5 858 814.5 858 Q 808.5 858 802.5 858 Q 796.5 858 790.5 858 Q 784.5 858 778.5 858 Q 772.5 858 766.5 858 Q 760.5 858 754.5 858 Q 748.5 858 742.5 858 Q 736.5 858 730.5 858 Q 724.5 858 718.5 858 Q 712.5 858 706.5 858 Q 700.5 858 694.5 858 Q 688.5 858 682.5 858 Q 676.5 858 670.5 858 Q 664.5 858 658.5 858 Q 652.5 858 646.5 858 Q 640.5 858 634.5 858 Q 628.5 858 622.5 858 Q 616.5 858 610.5 858 Q 604.5 858 598.5 858 Q 592.5 858 586.5 858 Q 580.5 858 574.5 858 Q 568.5 858 562.5 858 Q 556.5 858 550.5 858 Q 544.5 858 538.5 858 Q 532.5 858 526.5 858 Q 520.5 858 514.5 858 Q 508.5 858 502.5 858 Q 496.5 858 490.5 858 Q 484.5 858 478.5 858 Q 472.5 858 466.5 858 Q 460.5 858 454.5 858 Q 448.5 858 442.5 858 Q 436.5 858 430.5 858 Q 424.5 858 418.5 858 Q 412.5 858 406.5 858 Q 400.5 858 394.5 858 Q 388.5 858 382.5 858 Q 376.5 858 370.5 858 Q 364.5 858 358.5 858 Q 352.875 858 347.25 858 Q 344.625 855.375 342 852.75 Q 343.125 849 344.25 845.25 Q 346.5 841.125 348.75 837 Q 350.625 832.875 352.5 828.75 Q 354.375 825 356.25 821.25 Q 358.5 817.125 360.75 813 Q 363 809.625 365.25 806.25 Q 367.5 802.125 369.75 798 Q 371.625 793.875 373.5 789.75 Q 375.375 786 377.25 782.25 Q 379.5 778.125 381.75 774 Q 383.625 769.875 385.5 765.75 Q 387.375 762 389.25 758.25 Q 391.5 754.125 393.75 750 Q 395.625 746.25 397.5 742.5 Q 400.125 738.75 402.75 735 Q 404.625 730.875 406.5 726.75 Q 408.375 723 410.25 719.25 Q 412.5 715.125 414.75 711 Q 416.625 706.875 418.5 702.75 Q 420.375 699 422.25 695.25 Q 424.5 691.125 426.75 687 Q 428.625 682.875 430.5 678.75 Q 432.75 675.375 435 672 Q 437.25 667.875 439.5 663.75 Q 441.375 660 443.25 656.25 Q 445.5 652.125 447.75 648 Q 449.625 643.875 451.5 639.75 Q 453.375 636 455.25 632.25 Q 457.5 628.125 459.75 624 Q 461.625 619.875 463.5 615.75 Q 465.375 612 467.25 608.25 Q 469.5 604.125 471.75 600 Q 474 596.625 476.25 593.25 Q 478.5 589.125 480.75 585 Q 482.625 580.875 484.5 576.75 Q 486.375 573 488.25 569.25 Q 490.5 565.125 492.75 561 Q 494.625 556.875 496.5 552.75 Q 498.375 549 500.25 545.25 Q 502.5 541.125 504.75 537 Q 506.625 533.25 508.5 529.5 Q 511.125 525.75 513.75 522 Q 515.625 517.875 517.5 513.75 Q 519.375 510 521.25 506.25 Q 523.5 502.125 525.75 498 Q 527.625 493.875 529.5 489.75 Q 531.375 486 533.25 482.25 Q 535.125 478.125 537 474 Z" style="stroke: rgb(0, 0, 0); stroke-width: 1px; fill: none;"></path><g class="label" transform="translate(642.7241929732635,553.5796617232635)"><svg width="151.62778592847306" height="151.62778592847297" overflow="visible" viewBox="-50 -50 100 100" preserveAspectRatio="xMidYMid meet"><text font-family="Tahoma" font-size="50" dominant-baseline="middle" text-anchor="middle" fill="#000">1</text></svg></g><path data-facetId="2" d="M 897 450 Q 897 446.25 897 442.5 Q 897 436.5 897 430.5 Q 897 424.5 897 418.5 Q 897 412.5 897 406.5 Q 897 400.5 897 394.5 Q 897 388.5 897 382.5 Q 897 376.5 897 370.5 Q 897 364.875 897 359.25 Q 900.75 358.125 904.5 357 Q 910.5 357 916.5 357 Q 922.5 357 928.5 357 Q 934.5 357 940.5 357 Q 946.5 357 952.5 357 Q 958.5 357 964.5 357 Q 970.5 357 976.5 357 Q 982.5 357 988.5 357 Q 994.5 357 1000.5 357 Q 1006.5 357 1012.5 357 Q 1018.5 357 1024.5 357 Q 1030.5 357 1036.5 357 Q 1042.5 357 1048.5 357 Q 1054.5 357 1060.5 357 Q 1066.5 357 1072.5 357 Q 1078.5 357 1084.5 357 Q 1090.5 357 1096.5 357 Q 1102.5 357 1108.5 357 Q 1114.5 357 1120.5 357 Q 1126.5 357 1132.5 357 Q 1138.5 357 1144.5 357 Q 1150.5 357 1156.5 357 Q 1162.5 357 1168.5 357 Q 1174.5 357 1180.5 357 Q 1186.5 357 1192.5 357 Q 1198.5 357 1204.5 357 Q 1210.5 357 1216.5 357 Q 1222.5 357 1228.5 357 Q 1234.5 357 1240.5 357 Q 1246.5 357 1252.5 357 Q 1258.5 357 1264.5 357 Q 1270.5 357 1276.5 357 Q 1282.5 357 1288.5 357 Q 1294.5 357 1300.5 357 Q 1306.5 357 1312.5 357 Q 1318.5 357 1324.5 357 Q 1330.5 357 1336.5 357 Q 1342.5 357 1348.5 357 Q 1354.5 357 1360.5 357 Q 1366.5 357 1372.5 357 Q 1378.5 357 1384.5 357 Q 1390.5 357 1396.5 357 Q 1402.5 357 1408.5 357 Q 1414.5 357 1420.5 357 Q 1426.5 357 1432.5 357 Q 1438.5 357 1444.5 357 Q 1450.5 357 1456.5 357 Q 1462.5 357 1468.5 357 Q 1474.5 357 1480.5 357 Q 1486.5 357 1492.5 357 Q 1498.5 357 1504.5 357 Q 1510.5 357 1516.5 357 Q 1522.5 357 1528.5 357 Q 1534.5 357 1540.5 357 Q 1546.5 357 1552.5 357 Q 1558.5 357 1564.5 357 Q 1570.5 357 1576.5 357 Q 1582.5 357 1588.5 357 Q 1594.5 357 1600.5 357 Q 1606.5 357 1612.5 357 Q 1618.5 357 1624.5 357 Q 1630.5 357 1636.5 357 Q 1642.5 357 1648.5 357 Q 1654.5 357 1660.5 357 Q 1666.5 357 1672.5 357 Q 1678.5 357 1684.5 357 Q 1690.125 357 1695.75 357 Q 1696.875 360.75 1698 364.5 Q 1698 370.5 1698 376.5 Q 1698 382.5 1698 388.5 Q 1698 394.5 1698 400.5 Q 1698 406.5 1698 412.5 Q 1698 418.5 1698 424.5 Q 1698 430.5 1698 436.5 Q 1698 442.5 1698 448.5 Q 1698 454.5 1698 460.5 Q 1698 466.5 1698 472.5 Q 1698 478.5 1698 484.5 Q 1698 490.5 1698 496.5 Q 1698 502.5 1698 508.5 Q 1698 514.5 1698 520.5 Q 1698 526.5 1698 532.5 Q 1698 538.5 1698 544.5 Q 1698 550.5 1698 556.5 Q 1698 562.5 1698 568.5 Q 1698 574.5 1698 580.5 Q 1698 586.5 1698 592.5 Q 1698 598.5 1698 604.5 Q 1698 610.5 1698 616.5 Q 1698 622.5 1698 628.5 Q 1698 634.5 1698 640.5 Q 1698 646.5 1698 652.5 Q 1698 658.5 1698 664.5 Q 1698 670.5 1698 676.5 Q 1698 682.5 1698 688.5 Q 1698 694.5 1698 700.5 Q 1698 706.5 1698 712.5 Q 1698 718.5 1698 724.5 Q 1698 730.5 1698 736.5 Q 1698 742.5 1698 748.5 Q 1698 754.5 1698 760.5 Q 1698 766.5 1698 772.5 Q 1698 778.5 1698 784.5 Q 1698 790.5 1698 796.5 Q 1698 802.5 1698 808.5 Q 1698 814.5 1698 820.5 Q 1698 826.5 1698 832.5 Q 1698 838.5 1698 844.5 Q 1698 850.5 1698 856.5 Q 1698 862.5 1698 868.5 Q 1698 874.5 1698 880.5 Q 1698 886.5 1698 892.5 Q 1698 898.5 1698 904.5 Q 1698 910.5 1698 916.5 Q 1698 922.5 1698 928.5 Q 1698 934.5 1698 940.5 Q 1698 946.5 1698 952.5 Q 1698 958.5 1698 964.5 Q 1698 970.5 1698 976.5 Q 1698 982.5 1698 988.5 Q 1698 994.5 1698 1000.5 Q 1698 1006.5 1698 1012.5 Q 1698 1018.5 1698 1024.5 Q 1698 1030.5 1698 1036.5 Q 1698 1042.5 1698 1048.5 Q 1695.75 1050.75 1693.5 1053 Q 1687.5 1053 1681.5 1053 Q 1675.5 1053 1669.5 1053 Q 1663.5 1053 1657.5 1053 Q 1651.5 1053 1645.5 1053 Q 1639.5 1053 1633.5 1053 Q 1627.5 1053 1621.5 1053 Q 1615.5 1053 1609.5 1053 Q 1603.5 1053 1597.5 1053 Q 1591.5 1053 1585.5 1053 Q 1579.5 1053 1573.5 1053 Q 1567.5 1053 1561.5 1053 Q 1555.5 1053 1549.5 1053 Q 1543.5 1053 1537.5 1053 Q 1531.5 1053 1525.5 1053 Q 1519.5 1053 1513.5 1053 Q 1507.5 1053 1501.5 1053 Q 1495.5 1053 1489.5 1053 Q 1483.5 1053 1477.5 1053 Q 1471.5 1053 1465.5 1053 Q 1459.5 1053 1453.5 1053 Q 1447.5 1053 1441.5 1053 Q 1435.5 1053 1429.5 1053 Q 1423.5 1053 1417.5 1053 Q 1411.5 1053 1405.5 1053 Q 1399.5 1053 1393.5 1053 Q 1387.5 1053 1381.5 1053 Q 1375.5 1053 1369.5 1053 Q 1363.5 1053 1357.5 1053 Q 1351.5 1053 1345.5 1053 Q 1339.5 1053 1333.5 1053 Q 1327.5 1053 1321.5 1053 Q 1315.5 1053 1309.5 1053 Q 1303.5 1053 1297.5 1053 Q 1291.5 1053 1285.5 1053 Q 1279.5 1053 1273.5 1053 Q 1267.5 1053 1261.5 1053 Q 1257.75 1053 1254 1053 Q 1254 1053 1254 1053 Q 1254 1053 1254 1053 Q 1250.25 1053 1246.5 1053 Q 1240.5 1053 1234.5 1053 Q 1228.5 1053 1222.5 1053 Q 1216.5 1053 1210.5 1053 Q 1204.5 1053 1198.5 1053 Q 1192.5 1053 1186.5 1053 Q 1180.5 1053 1174.5 1053 Q 1168.5 1053 1162.5 1053 Q 1156.5 1053 1150.5 1053 Q 1144.5 1053 1138.5 1053 Q 1132.5 1053 1126.5 1053 Q 1120.5 1053 1114.5 1053 Q 1108.5 1053 1102.5 1053 Q 1096.5 1053 1090.5 1053 Q 1084.5 1053 1078.5 1053 Q 1072.5 1053 1066.5 1053 Q 1060.5 1053 1054.5 1053 Q 1048.5 1053 1042.5 1053 Q 1036.5 1053 1030.5 1053 Q 1024.5 1053 1018.5 1053 Q 1012.5 1053 1006.5 1053 Q 1000.5 1053 994.5 1053 Q 988.5 1053 982.5 1053 Q 976.5 1053 970.5 1053 Q 964.5 1053 958.5 1053 Q 952.5 1053 946.5 1053 Q 940.5 1053 934.5 1053 Q 928.5 1053 922.5 1053 Q 916.5 1053 910.5 1053 Q 904.875 1053 899.25 1053 Q 898.125 1049.25 897 1045.5 Q 897 1039.5 897 1033.5 Q 897 1027.5 897 1021.5 Q 897 1015.5 897 1009.5 Q 897 1003.5 897 997.5 Q 897 991.5 897 985.5 Q 897 979.5 897 973.5 Q 897 967.5 897 961.5 Q 897 955.5 897 949.5 Q 897 943.5 897 937.5 Q 897 931.5 897 925.5 Q 897 919.5 897 913.5 Q 897 907.5 897 901.5 Q 897 895.5 897 889.5 Q 897 883.5 897 877.5 Q 897 871.5 897 865.5 Q 897 863.25 897 861 Q 897 861 897 861 Q 895.5 859.5 894 858 Q 899.25 858 904.5 858 Q 910.5 858 916.5 858 Q 922.5 858 928.5 858 Q 934.5 858 940.5 858 Q 946.5 858 952.5 858 Q 958.5 858 964.5 858 Q 970.5 858 976.5 858 Q 982.5 858 988.5 858 Q 994.5 858 1000.5 858 Q 1006.5 858 1012.5 858 Q 1018.5 858 1024.5 858 Q 1030.5 858 1036.5 858 Q 1042.5 858 1048.5 858 Q 1054.5 858 1060.5 858 Q 1066.5 858 1072.5 858 Q 1078.5 858 1084.5 858 Q 1089 857.25 1093.5 856.5 Q 1093.875 852.75 1094.25 849 Q 1092.375 844.875 1090.5 840.75 Q 1088.625 837 1086.75 833.25 Q 1084.5 829.125 1082.25 825 Q 1080.375 820.875 1078.5 816.75 Q 1076.625 813 1074.75 809.25 Q 1072.5 805.125 1070.25 801 Q 1068.375 797.25 1066.5 793.5 Q 1063.875 789.75 1061.25 786 Q 1059.375 781.875 1057.5 777.75 Q 1055.625 774 1053.75 770.25 Q 1051.5 766.125 1049.25 762 Q 1047.375 757.875 1045.5 753.75 Q 1043.625 750 1041.75 746.25 Q 1039.5 742.125 1037.25 738 Q 1035.375 733.875 1033.5 729.75 Q 1031.625 726 1029.75 722.25 Q 1027.5 718.125 1025.25 714 Q 1023.375 710.25 1021.5 706.5 Q 1018.875 702.75 1016.25 699 Q 1014.375 694.875 1012.5 690.75 Q 1010.625 687 1008.75 683.25 Q 1006.5 679.125 1004.25 675 Q 1002.375 670.875 1000.5 666.75 Q 998.625 663 996.75 659.25 Q 994.5 655.125 992.25 651 Q 990.375 646.875 988.5 642.75 Q 986.625 639 984.75 635.25 Q 982.5 631.125 980.25 627 Q 978.375 622.875 976.5 618.75 Q 974.25 615.375 972 612 Q 969.75 607.875 967.5 603.75 Q 965.625 600 963.75 596.25 Q 961.5 592.125 959.25 588 Q 957.375 583.875 955.5 579.75 Q 953.625 576 951.75 572.25 Q 949.5 568.125 947.25 564 Q 945.375 559.875 943.5 555.75 Q 941.625 552 939.75 548.25 Q 937.5 544.125 935.25 540 Q 933.375 535.875 931.5 531.75 Q 929.25 528.375 927 525 Q 924.75 520.875 922.5 516.75 Q 920.625 513 918.75 509.25 Q 916.5 505.125 914.25 501 Q 912.375 496.875 910.5 492.75 Q 908.625 489 906.75 485.25 Q 904.5 481.125 902.25 477 Q 900.375 472.875 898.5 468.75 Q 896.625 464.625 894.75 460.5 Q 894.375 456.75 894 453 Q 895.5 451.5 897 450 Z" style="stroke: rgb(0, 0, 0); stroke-width: 1px; fill: none;"></path><g class="label" transform="translate(1283.3183084606096,594.4901834606096)"><svg width="179.20127370378066" height="179.20127370378066" overflow="visible" viewBox="-50 -50 100 100" preserveAspectRatio="xMidYMid meet"><text font-family="Tahoma" font-size="50" dominant-baseline="middle" text-anchor="middle" fill="#000">2</text></svg></g><path data-facetId="3" d="M 1254 1056 Q 1253.25 1058.625 1252.5 1061.25 Q 1251 1065.75 1249.5 1070.25 Q 1248 1074.75 1246.5 1079.25 Q 1244.625 1083.375 1242.75 1087.5 Q 1241.25 1091.625 1239.75 1095.75 Q 1237.5 1099.875 1235.25 1104 Q 1233.375 1108.125 1231.5 1112.25 Q 1229.625 1116 1227.75 1119.75 Q 1225.5 1123.875 1223.25 1128 Q 1221.375 1132.125 1219.5 1136.25 Q 1217.25 1139.625 1215 1143 Q 1212.75 1146.75 1210.5 1150.5 Q 1207.875 1154.25 1205.25 1158 Q 1203.375 1161.75 1201.5 1165.5 Q 1198.5 1168.875 1195.5 1172.25 Q 1193.25 1175.625 1191 1179 Q 1188.75 1182.75 1186.5 1186.5 Q 1183.5 1189.5 1180.5 1192.5 Q 1177.875 1196.25 1175.25 1200 Q 1172.625 1203 1170 1206 Q 1167 1209 1164 1212 Q 1161 1215 1158 1218 Q 1155.375 1221.375 1152.75 1224.75 Q 1150.125 1228.125 1147.5 1231.5 Q 1143.75 1233.75 1140 1236 Q 1137 1239 1134 1242 Q 1131 1245 1128 1248 Q 1125 1251 1122 1254 Q 1119 1256.625 1116 1259.25 Q 1112.25 1261.875 1108.5 1264.5 Q 1105.5 1267.5 1102.5 1270.5 Q 1099.125 1273.125 1095.75 1275.75 Q 1092.375 1278.375 1089 1281 Q 1085.625 1283.25 1082.25 1285.5 Q 1078.875 1288.5 1075.5 1291.5 Q 1071.75 1293.75 1068 1296 Q 1064.625 1298.25 1061.25 1300.5 Q 1057.5 1303.125 1053.75 1305.75 Q 1050.375 1308 1047 1310.25 Q 1043.25 1312.875 1039.5 1315.5 Q 1035.75 1317.375 1032 1319.25 Q 1027.875 1321.5 1023.75 1323.75 Q 1020.375 1326 1017 1328.25 Q 1012.875 1330.5 1008.75 1332.75 Q 1005 1334.625 1001.25 1336.5 Q 997.125 1338.375 993 1340.25 Q 988.875 1342.5 984.75 1344.75 Q 981 1346.625 977.25 1348.5 Q 973.125 1350.375 969 1352.25 Q 964.875 1354.5 960.75 1356.75 Q 957 1358.625 953.25 1360.5 Q 948.75 1362 944.25 1363.5 Q 939.75 1365 935.25 1366.5 Q 931.125 1368.375 927 1370.25 Q 922.5 1371.75 918 1373.25 Q 913.5 1374.75 909 1376.25 Q 904.875 1378.125 900.75 1380 Q 896.25 1381.5 891.75 1383 Q 886.875 1384.125 882 1385.25 Q 877.5 1386.75 873 1388.25 Q 868.125 1389.375 863.25 1390.5 Q 858.75 1392 854.25 1393.5 Q 849.375 1394.625 844.5 1395.75 Q 840 1396.875 835.5 1398 Q 830.625 1399.5 825.75 1401 Q 820.5 1401.75 815.25 1402.5 Q 810.375 1403.25 805.5 1404 Q 800.625 1405.5 795.75 1407 Q 790.5 1407.75 785.25 1408.5 Q 780.375 1409.25 775.5 1410 Q 769.875 1410.75 764.25 1411.5 Q 759.375 1412.25 754.5 1413 Q 748.5 1413.375 742.5 1413.75 Q 738 1414.875 733.5 1416 Q 727.5 1416 721.5 1416 Q 715.5 1416 709.5 1416 Q 704.25 1417.125 699 1418.25 Q 693.75 1418.625 688.5 1419 Q 682.5 1419 676.5 1419 Q 670.5 1419 664.5 1419 Q 658.5 1419 652.5 1419 Q 646.5 1419 640.5 1419 Q 634.5 1419 628.5 1419 Q 622.5 1419 616.5 1419 Q 611.625 1418.25 606.75 1417.5 Q 601.125 1416.75 595.5 1416 Q 589.5 1416 583.5 1416 Q 577.875 1416 572.25 1416 Q 567.375 1414.5 562.5 1413 Q 556.5 1413 550.5 1413 Q 546 1411.875 541.5 1410.75 Q 535.5 1410.375 529.5 1410 Q 525 1408.875 520.5 1407.75 Q 515.25 1407 510 1406.25 Q 504.75 1405.125 499.5 1404 Q 495 1402.875 490.5 1401.75 Q 485.25 1401 480 1400.25 Q 475.125 1399.125 470.25 1398 Q 465.375 1396.5 460.5 1395 Q 456 1393.875 451.5 1392.75 Q 447 1391.25 442.5 1389.75 Q 437.625 1388.625 432.75 1387.5 Q 428.25 1386 423.75 1384.5 Q 418.875 1383.375 414 1382.25 Q 409.5 1380.75 405 1379.25 Q 400.875 1377.375 396.75 1375.5 Q 392.25 1374 387.75 1372.5 Q 383.25 1371 378.75 1369.5 Q 374.625 1367.625 370.5 1365.75 Q 366.375 1364.25 362.25 1362.75 Q 357.75 1360.875 353.25 1359 Q 349.125 1357.125 345 1355.25 Q 340.875 1353.375 336.75 1351.5 Q 333 1349.625 329.25 1347.75 Q 325.125 1345.5 321 1343.25 Q 316.875 1341.375 312.75 1339.5 Q 309 1337.625 305.25 1335.75 Q 301.125 1333.5 297 1331.25 Q 293.25 1329.375 289.5 1327.5 Q 285.75 1324.875 282 1322.25 Q 277.875 1320.375 273.75 1318.5 Q 270.375 1316.25 267 1314 Q 263.25 1311.75 259.5 1309.5 Q 255.75 1306.875 252 1304.25 Q 248.625 1302 245.25 1299.75 Q 241.5 1297.125 237.75 1294.5 Q 234.375 1292.25 231 1290 Q 227.625 1287.375 224.25 1284.75 Q 220.875 1282.125 217.5 1279.5 Q 213.75 1276.875 210 1274.25 Q 207 1271.625 204 1269 Q 201 1266 198 1263 Q 194.25 1260.75 190.5 1258.5 Q 187.5 1255.5 184.5 1252.5 Q 181.5 1249.5 178.5 1246.5 Q 175.5 1243.5 172.5 1240.5 Q 169.5 1237.5 166.5 1234.5 Q 163.5 1231.5 160.5 1228.5 Q 157.5 1225.5 154.5 1222.5 Q 151.5 1219.5 148.5 1216.5 Q 145.5 1213.5 142.5 1210.5 Q 139.5 1207.5 136.5 1204.5 Q 134.25 1200.75 132 1197 Q 129 1194 126 1191 Q 123.75 1187.625 121.5 1184.25 Q 118.5 1180.875 115.5 1177.5 Q 113.25 1173.75 111 1170 Q 108.75 1166.625 106.5 1163.25 Q 103.875 1159.5 101.25 1155.75 Q 99 1152.375 96.75 1149 Q 94.5 1144.875 92.25 1140.75 Q 90 1137.375 87.75 1134 Q 85.5 1129.875 83.25 1125.75 Q 81.375 1122 79.5 1118.25 Q 77.625 1114.125 75.75 1110 Q 73.5 1105.875 71.25 1101.75 Q 69.375 1098 67.5 1094.25 Q 66 1089.75 64.5 1085.25 Q 62.625 1081.125 60.75 1077 Q 59.25 1072.5 57.75 1068 Q 56.25 1063.5 54.75 1059 Q 53.25 1054.5 51.75 1050 Q 50.25 1045.5 48.75 1041 Q 47.625 1036.125 46.5 1031.25 Q 45.75 1026.375 45 1021.5 Q 43.5 1016.625 42 1011.75 Q 41.625 1006.125 41.25 1000.5 Q 40.125 996 39 991.5 Q 39 985.5 39 979.5 Q 37.5 974.625 36 969.75 Q 36 964.125 36 958.5 Q 36 952.5 36 946.5 Q 36 940.5 36 934.5 Q 36 928.5 36 922.5 Q 36.375 917.25 36.75 912 Q 37.875 906.75 39 901.5 Q 39 895.875 39 890.25 Q 40.5 885.375 42 880.5 Q 42.375 875.25 42.75 870 Q 43.875 864.75 45 859.5 Q 46.125 855 47.25 850.5 Q 48.375 845.625 49.5 840.75 Q 51 836.25 52.5 831.75 Q 54 827.25 55.5 822.75 Q 57 818.25 58.5 813.75 Q 60 809.25 61.5 804.75 Q 63.375 800.625 65.25 796.5 Q 66.75 792.375 68.25 788.25 Q 70.5 784.125 72.75 780 Q 74.625 775.875 76.5 771.75 Q 78.375 768 80.25 764.25 Q 82.5 760.125 84.75 756 Q 86.625 752.25 88.5 748.5 Q 91.125 744.75 93.75 741 Q 95.625 737.25 97.5 733.5 Q 100.125 729.75 102.75 726 Q 105 722.625 107.25 719.25 Q 109.875 715.5 112.5 711.75 Q 114.75 708.375 117 705 Q 119.625 701.625 122.25 698.25 Q 124.875 694.875 127.5 691.5 Q 130.5 688.5 133.5 685.5 Q 136.125 681.75 138.75 678 Q 141.375 675 144 672 Q 147 669 150 666 Q 153 663 156 660 Q 159 657 162 654 Q 165 651 168 648 Q 171 645 174 642 Q 177 639 180 636 Q 183 633 186 630 Q 189.375 627.75 192.75 625.5 Q 196.125 622.5 199.5 619.5 Q 202.5 616.5 205.5 613.5 Q 208.875 610.875 212.25 608.25 Q 215.625 605.625 219 603 Q 222.375 600.75 225.75 598.5 Q 229.5 595.875 233.25 593.25 Q 236.625 590.625 240 588 Q 243.375 585.75 246.75 583.5 Q 250.5 580.875 254.25 578.25 Q 257.625 576 261 573.75 Q 265.125 571.5 269.25 569.25 Q 272.625 567 276 564.75 Q 280.125 562.5 284.25 560.25 Q 287.625 558 291 555.75 Q 295.125 553.5 299.25 551.25 Q 303 549.375 306.75 547.5 Q 310.875 545.625 315 543.75 Q 319.125 541.5 323.25 539.25 Q 327 537.375 330.75 535.5 Q 334.875 533.625 339 531.75 Q 343.125 529.5 347.25 527.25 Q 351.375 525.75 355.5 524.25 Q 359.625 522.375 363.75 520.5 Q 368.25 519 372.75 517.5 Q 377.25 516 381.75 514.5 Q 385.875 512.625 390 510.75 Q 394.5 509.25 399 507.75 Q 403.5 506.25 408 504.75 Q 412.125 502.875 416.25 501 Q 421.125 499.875 426 498.75 Q 430.5 497.25 435 495.75 Q 439.875 494.625 444.75 493.5 Q 449.625 492.375 454.5 491.25 Q 459 489.75 463.5 488.25 Q 468 487.125 472.5 486 Q 477.75 484.875 483 483.75 Q 488.25 483 493.5 482.25 Q 498 481.125 502.5 480 Q 507.75 478.875 513 477.75 Q 518.25 477 523.5 476.25 Q 528.75 475.125 534 474 Q 534 474 534 474 Q 535.5 474 537 474 Q 535.125 478.125 533.25 482.25 Q 531.375 486 529.5 489.75 Q 527.625 493.875 525.75 498 Q 523.5 502.125 521.25 506.25 Q 519.375 510 517.5 513.75 Q 515.625 517.875 513.75 522 Q 511.125 525.75 508.5 529.5 Q 506.625 533.25 504.75 537 Q 502.5 541.125 500.25 545.25 Q 498.375 549 496.5 552.75 Q 494.625 556.875 492.75 561 Q 490.5 565.125 488.25 569.25 Q 486.375 573 484.5 576.75 Q 482.625 580.875 480.75 585 Q 478.5 589.125 476.25 593.25 Q 474 596.625 471.75 600 Q 469.5 604.125 467.25 608.25 Q 465.375 612 463.5 615.75 Q 461.625 619.875 459.75 624 Q 457.5 628.125 455.25 632.25 Q 453.375 636 451.5 639.75 Q 449.625 643.875 447.75 648 Q 445.5 652.125 443.25 656.25 Q 441.375 660 439.5 663.75 Q 437.25 667.875 435 672 Q 432.75 675.375 430.5 678.75 Q 428.625 682.875 426.75 687 Q 424.5 691.125 422.25 695.25 Q 420.375 699 418.5 702.75 Q 416.625 706.875 414.75 711 Q 412.5 715.125 410.25 719.25 Q 408.375 723 406.5 726.75 Q 404.625 730.875 402.75 735 Q 400.125 738.75 397.5 742.5 Q 395.625 746.25 393.75 750 Q 391.5 754.125 389.25 758.25 Q 387.375 762 385.5 765.75 Q 383.625 769.875 381.75 774 Q 379.5 778.125 377.25 782.25 Q 375.375 786 373.5 789.75 Q 371.625 793.875 369.75 798 Q 367.5 802.125 365.25 806.25 Q 363 809.625 360.75 813 Q 358.5 817.125 356.25 821.25 Q 354.375 825 352.5 828.75 Q 350.625 832.875 348.75 837 Q 346.5 841.125 344.25 845.25 Q 343.125 849 342 852.75 Q 344.625 855.375 347.25 858 Q 352.875 858 358.5 858 Q 364.5 858 370.5 858 Q 376.5 858 382.5 858 Q 388.5 858 394.5 858 Q 400.5 858 406.5 858 Q 412.5 858 418.5 858 Q 424.5 858 430.5 858 Q 436.5 858 442.5 858 Q 448.5 858 454.5 858 Q 460.5 858 466.5 858 Q 472.5 858 478.5 858 Q 484.5 858 490.5 858 Q 496.5 858 502.5 858 Q 508.5 858 514.5 858 Q 520.5 858 526.5 858 Q 532.5 858 538.5 858 Q 544.5 858 550.5 858 Q 556.5 858 562.5 858 Q 568.5 858 574.5 858 Q 580.5 858 586.5 858 Q 592.5 858 598.5 858 Q 604.5 858 610.5 858 Q 616.5 858 622.5 858 Q 628.5 858 634.5 858 Q 640.5 858 646.5 858 Q 652.5 858 658.5 858 Q 664.5 858 670.5 858 Q 676.5 858 682.5 858 Q 688.5 858 694.5 858 Q 700.5 858 706.5 858 Q 712.5 858 718.5 858 Q 724.5 858 730.5 858 Q 736.5 858 742.5 858 Q 748.5 858 754.5 858 Q 760.5 858 766.5 858 Q 772.5 858 778.5 858 Q 784.5 858 790.5 858 Q 796.5 858 802.5 858 Q 808.5 858 814.5 858 Q 820.5 858 826.5 858 Q 832.5 858 838.5 858 Q 844.5 858 850.5 858 Q 856.5 858 862.5 858 Q 868.5 858 874.5 858 Q 880.5 858 886.5 858 Q 890.25 858 894 858 Q 894 858 894 858 Q 895.5 859.5 897 861 Q 897 863.25 897 865.5 Q 897 871.5 897 877.5 Q 897 883.5 897 889.5 Q 897 895.5 897 901.5 Q 897 907.5 897 913.5 Q 897 919.5 897 925.5 Q 897 931.5 897 937.5 Q 897 943.5 897 949.5 Q 897 955.5 897 961.5 Q 897 967.5 897 973.5 Q 897 979.5 897 985.5 Q 897 991.5 897 997.5 Q 897 1003.5 897 1009.5 Q 897 1015.5 897 1021.5 Q 897 1027.5 897 1033.5 Q 897 1039.5 897 1045.5 Q 898.125 1049.25 899.25 1053 Q 904.875 1053 910.5 1053 Q 916.5 1053 922.5 1053 Q 928.5 1053 934.5 1053 Q 940.5 1053 946.5 1053 Q 952.5 1053 958.5 1053 Q 964.5 1053 970.5 1053 Q 976.5 1053 982.5 1053 Q 988.5 1053 994.5 1053 Q 1000.5 1053 1006.5 1053 Q 1012.5 1053 1018.5 1053 Q 1024.5 1053 1030.5 1053 Q 1036.5 1053 1042.5 1053 Q 1048.5 1053 1054.5 1053 Q 1060.5 1053 1066.5 1053 Q 1072.5 1053 1078.5 1053 Q 1084.5 1053 1090.5 1053 Q 1096.5 1053 1102.5 1053 Q 1108.5 1053 1114.5 1053 Q 1120.5 1053 1126.5 1053 Q 1132.5 1053 1138.5 1053 Q 1144.5 1053 1150.5 1053 Q 1156.5 1053 1162.5 1053 Q 1168.5 1053 1174.5 1053 Q 1180.5 1053 1186.5 1053 Q 1192.5 1053 1198.5 1053 Q 1204.5 1053 1210.5 1053 Q 1216.5 1053 1222.5 1053 Q 1228.5 1053 1234.5 1053 Q 1240.5 1053 1246.5 1053 Q 1250.25 1053 1254 1053 Q 1254 1054.5 1254 1056 Z" style="stroke: rgb(0, 0, 0); stroke-width: 1px; fill: none;"></path><g class="label" transform="translate(549.8245376564247,1058.0725845314248)"><svg width="166.56772156215067" height="166.5677215621505" overflow="visible" viewBox="-50 -50 100 100" preserveAspectRatio="xMidYMid meet"><text font-family="Tahoma" font-size="50" dominant-baseline="middle" text-anchor="middle" fill="#000">3</text></svg></g></svg>